<?xml version="1.0" encoding="utf-8"?>
<!-- Generator: Adobe Illustrator 24.3.0, SVG Export Plug-In . SVG Version: 6.00 Build 0)  -->
<svg version="1.1" id="Layer_1" xmlns="http://www.w3.org/2000/svg" xmlns:xlink="http://www.w3.org/1999/xlink" x="0px" y="0px"
	 viewBox="0 0 677.3 99.1" style="enable-background:new 0 0 677.3 99.1;" xml:space="preserve">
<style type="text/css">
	.st0{fill:#FFD200;}
	.st1{fill:#232C67;}
	.st2{fill:#FFFFFF;}
	.st3{fill:#235E39;}
	.st4{fill:#C32032;}
	.st5{fill:#7B863A;}
	.st6{fill:#6D3B5D;}
	.st7{fill:#37657F;}
</style>
<g>
	<path d="M284.1,20.5c1.9,0,3.9,0.7,5.4,2c0.3,0.3,0.7,0.3,1,0l3.1-3.2c0.3-0.3,0.3-0.8,0-1.1c-2.7-2.5-5.6-3.7-9.6-3.7
		c-8,0-14.4,6.4-14.4,14.4c0,8,6.4,14.3,14.4,14.3c3.5,0,7-1.2,9.7-3.9c0.3-0.3,0.3-0.8,0-1.1l-3.1-3.3c-0.2-0.3-0.8-0.3-1,0
		c-1.4,1.2-3.5,1.9-5.3,1.9c-4.5,0-7.8-3.7-7.8-8.1C276.3,24.3,279.6,20.5,284.1,20.5"/>
	<path d="M319.2,14.5c-8,0-14.3,6.4-14.3,14.4c0,8,6.3,14.3,14.3,14.3c8,0,14.3-6.3,14.3-14.3C333.6,20.9,327.2,14.5,319.2,14.5
		 M319.2,36.8c-4.3,0-7.9-3.6-7.9-7.9c0-4.4,3.6-8,7.9-8c4.4,0,8,3.6,8,8C327.2,33.2,323.6,36.8,319.2,36.8"/>
	<path d="M362.7,36.9h-9.6V15.7c0-0.4-0.4-0.8-0.8-0.8h-4.7c-0.4,0-0.8,0.4-0.8,0.8V42c0,0.4,0.3,0.8,0.8,0.8h15.1
		c0.4,0,0.8-0.4,0.8-0.8v-4.3C363.4,37.3,363.1,36.9,362.7,36.9"/>
	<path d="M388.6,14.5c-8,0-14.3,6.4-14.3,14.4c0,8,6.3,14.3,14.3,14.3c8,0,14.3-6.3,14.3-14.3C403,20.9,396.6,14.5,388.6,14.5
		 M388.6,36.8c-4.3,0-7.9-3.6-7.9-7.9c0-4.4,3.6-8,7.9-8c4.4,0,8,3.6,8,8C396.6,33.2,393,36.8,388.6,36.8"/>
	<path d="M432.5,31.5c3.5-1.4,5.9-4.3,5.9-8c0-4.7-3.9-8.6-8.7-8.6h-11.9c-0.4,0-0.8,0.4-0.8,0.8V42c0,0.4,0.3,0.8,0.8,0.8h4.7
		c0.4,0,0.8-0.4,0.8-0.8V31.8h2.7l5.7,10.5c0.1,0.2,0.3,0.4,0.6,0.4h5.3c0.7,0,1-0.6,0.7-1.1L432.5,31.5z M429.2,26.8h-5.9v-6.2h5.9
		c1.6,0,3,1.4,3,3C432.2,25.3,430.8,26.8,429.2,26.8"/>
	<path d="M502.5,14.9h-9.7c-0.4,0-0.7,0.4-0.7,0.8V42c0,0.4,0.3,0.8,0.7,0.8h9.7c7.7,0,14-6.2,14-14
		C516.5,21.1,510.2,14.9,502.5,14.9 M502.1,36.9h-3.8V20.7h3.8c4.5,0,7.8,3.5,7.8,8C509.9,33.3,506.6,36.9,502.1,36.9"/>
	<path d="M543.2,14.5c-8,0-14.3,6.4-14.3,14.4c0,8,6.3,14.3,14.3,14.3c7.9,0,14.3-6.3,14.3-14.3C557.5,20.9,551.1,14.5,543.2,14.5
		 M543.2,36.8c-4.3,0-7.9-3.6-7.9-7.9c0-4.4,3.6-8,7.9-8c4.4,0,7.9,3.6,7.9,8C551.1,33.2,547.6,36.8,543.2,36.8"/>
	<path d="M465.8,14.9c-0.1-0.2-0.4-0.4-0.7-0.4h-0.4c-0.3,0-0.6,0.2-0.7,0.4l-12.4,26.8c-0.2,0.5,0.1,1,0.7,1h4.4
		c0.8,0,1.2-0.2,1.4-1l1.4-3.2h10.8l1.4,3.1c0.4,0.9,0.6,1,1.4,1h4.4c0.6,0,0.9-0.5,0.7-1L465.8,14.9z M461.3,33.9l3.6-8.3l3.7,8.3
		H461.3z"/>
</g>
<rect x="252.2" y="0.1" width="1.3" height="99"/>
<g>
	<path d="M269.5,82.3h2.3V68.4h-2.3v-2.7h8.3c1.5,0,2.8,0.1,4,0.5c3.7,1.1,6.2,4.4,6.2,9.1c0,4.5-2.3,7.8-5.9,9
		c-1.3,0.5-2.6,0.6-4.2,0.6h-8.3V82.3z M277.7,82.1c1.2,0,2.2-0.1,3.1-0.5c2.2-0.9,3.6-3.1,3.6-6.3c0-3.2-1.5-5.5-3.7-6.3
		c-1-0.4-1.9-0.4-3-0.4h-2.3v13.5H277.7z"/>
	<path d="M296.6,70.8c4,0,6.1,2.9,6.1,6.5c0,0.4-0.1,1.2-0.1,1.2h-9.5c0.2,2.5,2.1,3.8,4.1,3.8c2.2,0,4-1.5,4-1.5l1.3,2.4
		c0,0-2.1,1.9-5.6,1.9c-4.6,0-7.4-3.3-7.4-7.2C289.7,73.8,292.5,70.8,296.6,70.8z M299.2,76.5c-0.1-1.9-1.2-3-2.7-3
		c-1.8,0-3,1.2-3.3,3H299.2z"/>
	<path d="M306.2,87.7V74.3c0-0.4-0.2-0.6-0.6-0.6H304v-2.6h3.5c1.3,0,1.7,0.6,1.7,1.3v0.1c0,0.3,0,0.6,0,0.6h0.1
		c0,0,1.2-2.3,4.4-2.3c3.7,0,6.1,2.9,6.1,7.2c0,4.4-2.7,7.2-6.3,7.2c-2.7,0-4-1.9-4-1.9h-0.1c0,0,0.1,0.5,0.1,1.2v3.3h2v2.6h-7.4
		v-2.6H306.2z M312.9,82.3c1.9,0,3.5-1.5,3.5-4.3c0-2.6-1.4-4.3-3.4-4.3c-1.8,0-3.5,1.3-3.5,4.3C309.5,80.2,310.7,82.3,312.9,82.3z"
		/>
	<path d="M328.7,76.4h0.9v-0.5c0-1.8-1.1-2.4-2.5-2.4c-2.1,0-3.9,1.3-3.9,1.3l-1.3-2.4c0,0,2.1-1.7,5.5-1.7c3.7,0,5.7,1.9,5.7,5.4
		v5.5c0,0.4,0.2,0.6,0.6,0.6h1.2v2.6h-3.2c-1.3,0-1.8-0.7-1.8-1.5v-0.2c0-0.4,0.1-0.7,0.1-0.7h-0.1c0,0-1.2,2.6-4.3,2.6
		c-2.3,0-4.6-1.4-4.6-4.2C321,76.8,326.5,76.4,328.7,76.4z M326.5,82.7c1.9,0,3.2-2,3.2-3.7v-0.5h-0.6c-1.3,0-4.6,0.2-4.6,2.3
		C324.5,81.8,325.2,82.7,326.5,82.7z"/>
	<path d="M336.2,82.3h2v-8c0-0.4-0.2-0.6-0.6-0.6h-1.5v-2.6h3.6c1.2,0,1.8,0.5,1.8,1.7v0.8c0,0.5-0.1,0.9-0.1,0.9h0.1
		c0.6-2,2.3-3.5,4.4-3.5c0.3,0,0.6,0.1,0.6,0.1v3.4c0,0-0.4-0.1-0.8-0.1c-2.8,0-4,2.4-4,5v3h2v2.6h-7.4V82.3z"/>
	<path d="M349.1,73.7H347v-2.6h2.2v-3.8h3.3v3.8h3.1v2.6h-3.1v5.8c0,2.3,1.8,2.7,2.8,2.7c0.4,0,0.6,0,0.6,0V85c0,0-0.4,0.1-1.1,0.1
		c-1.9,0-5.7-0.6-5.7-5.2V73.7z"/>
	<path d="M357.4,82.3h2v-8.1c0-0.4-0.2-0.6-0.6-0.6h-1.5v-2.6h3.6c1.2,0,1.8,0.6,1.8,1.5v0.6c0,0.3-0.1,0.6-0.1,0.6h0.1
		c0.7-1.4,2.4-3.1,4.7-3.1c1.9,0,3.3,0.9,3.8,3h0.1c0.8-1.6,2.6-3,4.8-3c2.8,0,4.4,1.6,4.4,5.2v6.3h2v2.6H377v-8.2
		c0-1.6-0.3-2.8-1.9-2.8c-2.3,0-3.5,2.3-3.5,4.9v3.5h2v2.6h-5.4v-8.2c0-1.5-0.2-2.8-1.9-2.8c-2.4,0-3.5,2.6-3.5,5v3.3h2v2.6h-7.4
		V82.3z"/>
	<path d="M390.5,70.8c4,0,6.1,2.9,6.1,6.5c0,0.4-0.1,1.2-0.1,1.2H387c0.2,2.5,2.1,3.8,4.1,3.8c2.2,0,4-1.5,4-1.5l1.3,2.4
		c0,0-2.1,1.9-5.6,1.9c-4.6,0-7.4-3.3-7.4-7.2C383.5,73.8,386.4,70.8,390.5,70.8z M393.1,76.5c-0.1-1.9-1.2-3-2.7-3
		c-1.8,0-3,1.2-3.3,3H393.1z"/>
	<path d="M398.3,82.3h2v-8c0-0.4-0.2-0.6-0.6-0.6h-1.5v-2.6h3.6c1.2,0,1.8,0.6,1.8,1.5v0.6c0,0.3-0.1,0.6-0.1,0.6h0.1
		c0.2-0.4,1.6-3.1,5.1-3.1c2.9,0,4.6,1.6,4.6,5.2v6.3h2v2.6h-5.4v-8.2c0-1.7-0.5-2.8-2.2-2.8c-2.5,0-3.9,2.4-3.9,4.8v3.6h2v2.6h-7.4
		V82.3z"/>
	<path d="M418,73.7h-2.1v-2.6h2.2v-3.8h3.3v3.8h3.1v2.6h-3.1v5.8c0,2.3,1.8,2.7,2.8,2.7c0.4,0,0.6,0,0.6,0V85c0,0-0.4,0.1-1.1,0.1
		c-1.9,0-5.7-0.6-5.7-5.2V73.7z"/>
	<path d="M439.8,70.8c4.2,0,7.6,3,7.6,7.2c0,4.2-3.4,7.2-7.6,7.2c-4.2,0-7.6-3-7.6-7.2C432.2,73.8,435.6,70.8,439.8,70.8z
		 M439.8,82.3c2.2,0,4.1-1.7,4.1-4.3c0-2.5-1.9-4.3-4.1-4.3c-2.2,0-4.1,1.8-4.1,4.3C435.7,80.6,437.6,82.3,439.8,82.3z"/>
	<path d="M449,82.3h2v-8.6h-2.1v-2.6h2.1v-0.6c0-4.5,3.6-5,5.4-5c0.8,0,1.4,0.1,1.4,0.1v2.8c0,0-0.4-0.1-1.1-0.1
		c-0.8,0-2.3,0.2-2.3,2.2v0.7h3.1v2.6h-3.1v8.6h2.3v2.6H449V82.3z"/>
	<path d="M465.3,82.3h2.3V68.4h-2.3v-2.7h8.2v2.7h-2.3v5.5h8.7v-5.5h-2.3v-2.7h8.2v2.7h-2.3v13.8h2.3v2.6h-8.2v-2.6h2.3v-5.5h-8.7
		v5.5h2.3v2.6h-8.2V82.3z"/>
	<path d="M489.3,73.7h-2.1v-2.6h5.6v8.3c0,1.6,0.4,2.8,2.2,2.8c2.4,0,3.8-2.4,3.8-4.9v-3.6h-2.1v-2.6h5.5v10.6
		c0,0.4,0.2,0.6,0.6,0.6h1.3v2.5h-3.4c-1.2,0-1.8-0.6-1.8-1.5v-0.5c0-0.4,0-0.6,0-0.6h-0.1c-0.2,0.5-1.6,3-5,3
		c-2.8,0-4.5-1.5-4.5-5.2V73.7z"/>
	<path d="M505.5,82.3h2v-8.1c0-0.4-0.2-0.6-0.6-0.6h-1.5v-2.6h3.6c1.2,0,1.8,0.6,1.8,1.5v0.6c0,0.3-0.1,0.6-0.1,0.6h0.1
		c0.7-1.4,2.4-3.1,4.7-3.1c1.9,0,3.3,0.9,3.8,3h0.1c0.8-1.6,2.6-3,4.8-3c2.8,0,4.4,1.6,4.4,5.2v6.3h2v2.6h-5.4v-8.2
		c0-1.6-0.3-2.8-1.9-2.8c-2.3,0-3.5,2.3-3.5,4.9v3.5h2v2.6h-5.4v-8.2c0-1.5-0.2-2.8-1.9-2.8c-2.4,0-3.5,2.6-3.5,5v3.3h2v2.6h-7.4
		V82.3z"/>
	<path d="M539.2,76.4h0.9v-0.5c0-1.8-1.1-2.4-2.5-2.4c-2.1,0-3.9,1.3-3.9,1.3l-1.3-2.4c0,0,2.1-1.7,5.5-1.7c3.7,0,5.7,1.9,5.7,5.4
		v5.5c0,0.4,0.2,0.6,0.6,0.6h1.2v2.6H542c-1.3,0-1.8-0.7-1.8-1.5v-0.2c0-0.4,0.1-0.7,0.1-0.7h-0.1c0,0-1.2,2.6-4.3,2.6
		c-2.3,0-4.6-1.4-4.6-4.2C531.4,76.8,536.9,76.4,539.2,76.4z M536.9,82.7c1.9,0,3.2-2,3.2-3.7v-0.5h-0.6c-1.3,0-4.6,0.2-4.6,2.3
		C534.9,81.8,535.6,82.7,536.9,82.7z"/>
	<path d="M546.6,82.3h2v-8c0-0.4-0.2-0.6-0.6-0.6h-1.5v-2.6h3.6c1.2,0,1.8,0.6,1.8,1.5v0.6c0,0.3-0.1,0.6-0.1,0.6h0.1
		c0.2-0.4,1.6-3.1,5.1-3.1c2.9,0,4.6,1.6,4.6,5.2v6.3h2v2.6h-5.4v-8.2c0-1.7-0.5-2.8-2.2-2.8c-2.5,0-3.9,2.4-3.9,4.8v3.6h2v2.6h-7.4
		V82.3z"/>
	<path d="M574.4,78.7v1.4c0,1.2,1.6,2,3.4,2c1.9,0,3.3-0.8,3.3-2.4c0-1.9-2.2-2.6-4.4-3.4c-2.6-1-5.1-2.1-5.1-5.6
		c0-3.9,3.1-5.3,6.4-5.3c3,0,6.1,1.2,6.1,3.4v2.5h-3.2V70c0-1-1.4-1.5-2.9-1.5c-1.6,0-2.9,0.6-2.9,2.1c0,1.8,1.8,2.4,3.8,3.1
		c2.9,1,5.7,2.2,5.7,5.8c0,3.9-3.3,5.7-6.9,5.7c-3.2,0-6.6-1.4-6.6-4.3v-2.2H574.4z"/>
	<path d="M593.3,70.8c4,0,6.1,2.9,6.1,6.5c0,0.4-0.1,1.2-0.1,1.2h-9.5c0.2,2.5,2.1,3.8,4.1,3.8c2.2,0,4-1.5,4-1.5l1.3,2.4
		c0,0-2.1,1.9-5.6,1.9c-4.6,0-7.4-3.3-7.4-7.2C586.3,73.8,589.2,70.8,593.3,70.8z M595.9,76.5c-0.1-1.9-1.2-3-2.7-3
		c-1.8,0-3,1.2-3.3,3H595.9z"/>
	<path d="M601.2,82.3h2v-8c0-0.4-0.2-0.6-0.6-0.6H601v-2.6h3.6c1.2,0,1.8,0.5,1.8,1.7v0.8c0,0.5-0.1,0.9-0.1,0.9h0.1
		c0.6-2,2.3-3.5,4.4-3.5c0.3,0,0.6,0.1,0.6,0.1v3.4c0,0-0.4-0.1-0.8-0.1c-2.8,0-4,2.4-4,5v3h2v2.6h-7.4V82.3z"/>
	<path d="M611.7,71.1h6.6v2.6h-1.5l2.4,6.8c0.3,0.7,0.4,1.5,0.4,1.5h0.1c0,0,0.1-0.8,0.3-1.5l2.4-6.8h-1.6v-2.6h6.6v2.6h-1.6
		l-4.2,11.2h-3.9l-4.2-11.2h-1.7V71.1z"/>
	<path d="M628.3,82.3h2v-8.6h-2.1v-2.6h5.6v11.2h2v2.6h-7.4V82.3z M630.3,65.7h3.5v3.1h-3.5V65.7z"/>
	<path d="M644.3,70.8c2.3,0,5.6,0.9,5.6,3.3V76h-3v-0.9c0-0.9-1.4-1.3-2.6-1.3c-2.5,0-4,1.7-4,4.2c0,2.8,2,4.4,4.3,4.4
		c1.9,0,3.5-1.1,4.3-1.7l1.2,2.4c-0.9,0.9-3.1,2.1-5.7,2.1c-4,0-7.6-2.7-7.6-7.2C636.9,73.9,640,70.8,644.3,70.8z"/>
	<path d="M658.4,70.8c4,0,6.1,2.9,6.1,6.5c0,0.4-0.1,1.2-0.1,1.2h-9.5c0.2,2.5,2.1,3.8,4.1,3.8c2.2,0,4-1.5,4-1.5l1.3,2.4
		c0,0-2.1,1.9-5.6,1.9c-4.6,0-7.4-3.3-7.4-7.2C651.4,73.8,654.3,70.8,658.4,70.8z M661,76.5c-0.1-1.9-1.2-3-2.7-3
		c-1.8,0-3,1.2-3.3,3H661z"/>
	<path d="M666,80.3h2.9v0.8c0,0.9,1.3,1.4,2.7,1.4c1.4,0,2.3-0.5,2.3-1.4c0-1.2-1.3-1.5-3.1-2.1c-2-0.7-4.3-1.6-4.3-4.3
		c0-2.9,2.9-3.9,5.4-3.9c2,0,5,0.8,5,2.9v1.8h-2.9v-0.8c0-0.7-0.8-1.1-2-1.1c-1.1,0-2,0.4-2,1.2c0,1.1,1.3,1.6,2.9,2.1
		c2.1,0.7,4.6,1.5,4.6,4.2c0,2.8-2.6,4.2-5.8,4.2c-2.5,0-5.6-1.1-5.6-3.3V80.3z"/>
</g>
<g>
	<g>
		<g>
			<path class="st0" d="M236.4,51.1c0-0.5,0-1,0-1.5c0-27.3-22.2-49.5-49.5-49.5s-49.5,22.2-49.5,49.5c0,0.5,0,1,0,1.5l49.5,20.1
				L236.4,51.1z"/>
			<path class="st1" d="M186.9,74.2l-0.5-0.2l-48.8-19.8c2.3,25.2,23.5,45,49.3,45s47-19.7,49.3-45L186.9,74.2z"/>
		</g>
		<g>
			<path class="st2" d="M169.3,77.4c1.7,0,2.9,0.5,4,1.5c0.2,0.1,0.2,0.3,0,0.5l-1.3,1.4c-0.1,0.1-0.3,0.1-0.4,0
				c-0.6-0.6-1.4-0.9-2.2-0.9c-1.9,0-3.3,1.6-3.3,3.4c0,1.8,1.4,3.4,3.3,3.4c0.8,0,1.6-0.3,2.2-0.8c0.1-0.1,0.3-0.1,0.4,0l1.3,1.4
				c0.1,0.1,0.1,0.3,0,0.4c-1.1,1.1-2.6,1.6-4,1.6c-3.3,0-6-2.6-6-6S165.9,77.4,169.3,77.4z"/>
			<path class="st2" d="M176.3,77.8c0-0.2,0.1-0.3,0.3-0.3h4.1c3.2,0,5.8,2.6,5.8,5.8c0,3.2-2.6,5.8-5.8,5.8h-4.1
				c-0.2,0-0.3-0.1-0.3-0.3V77.8z M180.5,86.7c1.9,0,3.2-1.5,3.2-3.4c0-1.9-1.4-3.4-3.2-3.4h-1.6v6.7H180.5z"/>
			<path class="st2" d="M189.6,77.8c0-0.2,0.2-0.3,0.3-0.3h2c0.2,0,0.3,0.1,0.3,0.3V82h4.8v-4.2c0-0.2,0.1-0.3,0.3-0.3h2
				c0.2,0,0.3,0.1,0.3,0.3v11c0,0.2-0.2,0.3-0.3,0.3h-2c-0.2,0-0.3-0.1-0.3-0.3v-4.4h-4.8v4.4c0,0.2-0.1,0.3-0.3,0.3h-2
				c-0.2,0-0.3-0.1-0.3-0.3V77.8z"/>
			<path class="st2" d="M202.8,87.6l0.8-1.4c0.1-0.2,0.5-0.2,0.6-0.1c0.1,0,1.3,0.9,2.4,0.9c0.7,0,1.1-0.4,1.1-1
				c0-0.7-0.6-1.2-1.7-1.7c-1.4-0.6-3.2-1.7-3.2-3.7c0-1.6,1.3-3.3,3.8-3.3c1.7,0,3.1,0.9,3.6,1.2c0.2,0.1,0.2,0.4,0.1,0.5l-0.8,1.3
				c-0.1,0.2-0.4,0.3-0.6,0.2c-0.2-0.1-1.4-1-2.4-1c-0.6,0-1,0.4-1,0.9c0,0.6,0.5,1.1,1.8,1.6c1.3,0.5,3.4,1.5,3.4,3.8
				c0,1.7-1.5,3.4-3.9,3.4c-2.2,0-3.4-0.9-3.8-1.3C202.7,87.9,202.6,87.8,202.8,87.6z"/>
		</g>
	</g>
	<g>
		<path class="st2" d="M179.6,14c0-2.3,1.9-4.2,4.2-4.2c2.3,0,4.2,1.9,4.2,4.2c0,2.3-1.9,4.2-4.2,4.2
			C181.5,18.2,179.6,16.3,179.6,14z"/>
		<path class="st2" d="M190,35c0,1.1,0.9,2,2,2c1.1,0,2-0.9,2-2v-5.5c0-5.7-4.6-10.3-10.3-10.3c-5.7,0-10.3,4.6-10.3,10.3V35
			c0,1.1,0.9,2,2,2c1.1,0,2-0.9,2-2v-5.5c0-1.5,0.6-2.9,1.5-4v30.1c0,1.1,0.9,2,2,2c1.1,0,2-0.9,2-2v-17h1.4v17c0,1.1,0.9,2,2,2
			c1.1,0,2-0.9,2-2V25.5c0.9,1.1,1.5,2.5,1.5,4V35z"/>
		<path class="st2" d="M169.5,35.2c1.3,0,2.4-1.1,2.4-2.4c0-1.3-1.1-2.4-2.4-2.4c-1.3,0-2.4,1.1-2.4,2.4
			C167.1,34.2,168.2,35.2,169.5,35.2z"/>
		<path class="st2" d="M169.5,35.7c-3.2,0-5.9,2.6-5.9,5.9v3.1c0,0.6,0.5,1.2,1.2,1.2s1.2-0.5,1.2-1.2v-3.1c0-0.9,0.3-1.7,0.8-2.3
			v17.1c0,0.6,0.5,1.2,1.2,1.2c0.6,0,1.2-0.5,1.2-1.2v-9.6h0.8v9.6c0,0.6,0.5,1.2,1.2,1.2c0.6,0,1.2-0.5,1.2-1.2V39.3
			c0.5,0.6,0.8,1.4,0.8,2.3v3.1c0,0.6,0.5,1.2,1.2,1.2c0.6,0,1.2-0.5,1.2-1.2v-3.1C175.4,38.4,172.7,35.7,169.5,35.7z"/>
		<circle class="st2" cx="203" cy="25.1" r="3.1"/>
		<path class="st2" d="M215.1,48.6c0,5-4,9-9,9c-5,0-9-4-9-9c0-2,0.7-3.9,1.8-5.4c-0.7,0-1.7-0.1-2-0.1c-0.5,0-0.9,0.6-0.9,1.8
			c-0.1,1.2-0.4,4.5-0.4,5.5c0,1-0.1,1.9-1.1,1.9c-1,0-2.3-0.1-2.6-0.1s-0.8,0.3-0.7,0.9c0.1,0.5,0.2,0.9,0.9,1.2
			c0.3-0.8,1-1.4,2-1.4c1.1,0,2.1,0.9,2.1,2.1c0,1.1-0.9,2.1-2.1,2.1c-1,0-1.8-0.7-2-1.6c-0.4-0.1-0.8-0.2-1.1-0.4c-0.6-0.5-1-1-1-3
			c0,0-0.1-1.5,0.9-1.5c0.7,0,1.2-0.1,1.2-0.8c0-0.7,0.6-6.9,0.8-8.1c0.1-1.2,1-2.3,2.9-2.3c1.3,0,3.3-0.1,4.5-0.1c0.6,0,1-0.5,1-1
			v-6.7c0-1.1,0.6-2.1,1.1-2.4c1.1-0.8,3.1-0.8,4.5,0.7c1.3,1.5,2.8,3.5,3.2,4.1c0.4,0.6,0.9,1.6,0.1,3.1c-0.8,1.6-1.3,2.5-1.8,3.5
			c-0.5,1-1.5,2.3-2.4,1.7c-0.9-0.6-0.7-1.7,0-3c0.7-1.3,1.6-2.7,1.6-3.3s-0.8-2.1-1.3-1.1c-0.4,0.8-1.6,3.3-2.3,4.8
			c0.3-0.1,0.6-0.1,0.9-0.2c-0.6,1.4-0.4,2.3,0,2.9c-2.7,0.6-4.7,3.1-4.7,6c0,3.4,2.8,6.2,6.2,6.2c3.4,0,6.2-2.8,6.2-6.2
			c0-2.7-1.8-5.1-4.3-5.9c0.5-0.5,0.9-1.1,1.1-1.6c0.1-0.3,0.3-0.6,0.5-0.9C212.8,41.7,215.1,44.9,215.1,48.6z M193.4,55.2
			c0,0.4,0.3,0.7,0.7,0.7c0.4,0,0.7-0.3,0.7-0.7c0-0.4-0.3-0.7-0.7-0.7C193.7,54.5,193.4,54.8,193.4,55.2z"/>
	</g>
</g>
<g>
	<g>
		<path class="st3" d="M43.5,80.6c-1.5-1.9-2.9-3.9-4.1-6c-0.1-0.1-0.2-0.2-0.2-0.3c-0.9-1.7-1.8-3.3-2.5-5.1
			c-0.2-0.5-0.4-1-0.6-1.6c-2.6-6.6-3.7-13.5-3.4-20.6c0.4-7.8,2.6-15,6.4-21.8c0-0.1,0.1-0.2,0.1-0.3c1.1-1.7,2.1-3.4,3.3-5
			c-0.6-1-1.1-2-1.8-3.2c-3.9-7-5.9-10.3-9.8-16.8c-3.9,6.6-5.9,10-9.8,17.1c-3.9,6.9-5.9,10.4-9.7,17.8c3.2-0.8,4.8-1.2,8-1.6
			c-0.8,2-1.2,3-2,5.1c-4.7,9.2-9.1,18.7-13.3,28.1c3.3-1.2,4.9-1.7,8.3-2.5C8,74.1,4,84.3,0,94.6c21.7-7.5,39.4-7.6,61.1-0.2
			c-4.5-2.1-8.6-4.9-12.5-8.4C46.7,84.4,45,82.5,43.5,80.6z"/>
		<path class="st0" d="M82.2,25.7c-7.2,0-13.9,3.2-18.5,8.7l-0.1,0.1c-3.5,4.3-5.5,9.7-5.5,15.3c0,0.2,0,0.5,0,0.7l14.6-12.7l10,8.7
			l10-8.7l13.7,11.9c0-3.2-0.6-6.2-1.9-9.1C100.7,31.5,92,25.7,82.2,25.7z"/>
		<path class="st4" d="M39,25.3c-3.8,6.7-6,14-6.4,21.8c-0.3,7.1,0.8,14,3.4,20.6c0.2,0.5,0.4,1.1,0.6,1.6l18.9-16.5
			c0-0.3-0.1-0.7-0.1-1c0-0.6-0.1-1.2-0.1-1.9c0-6.2,2.2-12.3,6.1-17.1l0.1-0.1c5.1-6.1,12.6-9.6,20.6-9.6
			c10.9,0,20.6,6.5,24.8,16.5c0,0,0,0,0,0c6.7-2.7,13.3-5.4,20-8.1c0.4-0.2,0.6-0.3,0.3-0.8c-0.8-1.9-1.8-3.8-2.7-5.6
			c-0.1-0.2-0.2-0.3-0.3-0.4c-9-14.5-22-22.5-39-24.1c-4.9-0.4-9.7,0-14.5,1.1c-11.3,2.7-20.6,8.5-27.8,17.6
			c-0.2,0.3-0.4,0.5-0.6,0.8c-1.2,1.6-2.3,3.3-3.3,5C39.1,25.1,39,25.2,39,25.3z"/>
		<path class="st5" d="M72.7,37.7L58.1,50.5c0,0.4,0,0.7,0.1,1c0.3,3.8,1.4,7.5,3.4,10.7c0.4,0.7,0.8,1.2,1.1,1.6l20-17.5L72.7,37.7
			z"/>
		<path class="st6" d="M59.2,63.8c-2-3.4-3.3-7.2-3.7-11L36.6,69.2c0.8,1.7,1.6,3.4,2.5,5.1c0.1,0.1,0.2,0.2,0.2,0.3
			c1.2,2.1,2.6,4.1,4.1,6l0.7-0.6l16.4-14.3c0,0-0.1-0.1-0.1-0.1C60.1,65.1,59.7,64.5,59.2,63.8z"/>
		<path class="st1" d="M126.8,67.8c-6.5-2.7-13.1-5.3-19.6-7.9c0,0,0,0,0,0c-0.7,1.8-1.7,3.6-2.8,5.2c-5,7.3-13.3,11.6-22.1,11.6
			c-8.5,0-16.6-4.1-21.7-11L44.2,80l-0.7,0.6c1.5,1.9,3.2,3.7,5.1,5.4c3.9,3.5,8.1,6.3,12.5,8.4c6,2.8,12.5,4.3,19.5,4.6
			c5.1,0.2,10.1-0.5,15-1.9c9.6-2.8,17.6-8.1,24.1-15.7c0.4-0.5,0.8-1,1.3-1.5c1.3-1.7,2.5-3.6,3.7-5.5c1-1.7,1.9-3.5,2.6-5.3
			c0.1-0.2,0.1-0.3,0.2-0.4l0.1-0.2l-0.1-0.2C127.3,68,127.1,68,126.8,67.8z"/>
		<path class="st7" d="M82.7,46.4l19.2,16.7l0.3,0.2c1-1.4,1.8-3,2.4-4.5c1.2-2.9,1.8-5.9,1.8-9c0-0.1,0-0.1,0-0.2L92.7,37.7
			L82.7,46.4z"/>
		<path class="st1" d="M82.7,46.4l-20,17.5c0,0,0,0.1,0.1,0.1c4.5,6.2,11.8,9.9,19.5,9.9c7.9,0,15.3-3.9,19.8-10.4
			c0,0,0.1-0.1,0.1-0.1l-0.3-0.2L82.7,46.4z"/>
	</g>
	<g>
		<path d="M111.4,93.9h-1.1c-0.1,0-0.1-0.1-0.1-0.1v-0.6c0-0.1,0.1-0.1,0.1-0.1h3c0.1,0,0.1,0.1,0.1,0.1v0.6c0,0.1-0.1,0.1-0.1,0.1
			h-1.1v3.9c0,0.1-0.1,0.1-0.1,0.1h-0.6c-0.1,0-0.1-0.1-0.1-0.1V93.9z"/>
		<path d="M115.3,93.1c0-0.1,0-0.1,0.1-0.1h0.1c0.1,0,0.1,0,0.1,0.1l1.5,3.3h0l1.5-3.3c0,0,0.1-0.1,0.1-0.1h0.1c0.1,0,0.1,0,0.1,0.1
			l0.8,4.7c0,0.1,0,0.2-0.1,0.2h-0.6c-0.1,0-0.1-0.1-0.1-0.1l-0.4-2.6h0l-1.2,2.7c0,0-0.1,0.1-0.1,0.1h-0.1c-0.1,0-0.1,0-0.1-0.1
			l-1.2-2.7h0l-0.4,2.6c0,0-0.1,0.1-0.1,0.1h-0.6c-0.1,0-0.1-0.1-0.1-0.2L115.3,93.1z"/>
	</g>
</g>
</svg>
