<svg width="189" height="70" viewBox="0 0 189 70" fill="none" xmlns="http://www.w3.org/2000/svg">
<path d="M74.3225 43.4893C74.6982 43.6382 74.9988 43.8616 75.2618 44.1223C75.5249 44.3829 75.7503 44.718 75.9006 45.0531C76.0509 45.4255 76.126 45.7978 76.126 46.2074V47.6223C76.126 47.8457 76.0133 47.9946 75.8255 48.0319L73.6461 48.367C73.4207 48.4414 73.3455 48.367 73.3455 48.1436V46.3191C73.3455 46.1702 73.308 46.0212 73.1952 45.9095C73.0825 45.7978 72.9322 45.7606 72.7819 45.7606H72.594C72.4437 45.7606 72.2934 45.7978 72.1807 45.9095C72.068 46.0212 72.0304 46.1702 72.0304 46.3191V54.6595C72.0304 54.8085 72.068 54.9574 72.1807 55.0691C72.2934 55.1808 72.4437 55.218 72.594 55.218H72.7819C72.9322 55.218 73.0825 55.1808 73.1952 55.0691C73.308 54.9574 73.3455 54.8085 73.3455 54.6595V51.8297C73.3455 51.6063 73.4583 51.5319 73.6461 51.6063L75.8255 51.9042C76.0133 51.9787 76.126 52.1276 76.126 52.3138V54.8085C76.126 55.218 76.0509 55.5904 75.9006 55.9627C75.7503 56.3351 75.5249 56.6329 75.2618 56.8936C74.9988 57.1542 74.6606 57.3776 74.3225 57.5265C73.9467 57.6755 73.571 57.7499 73.1577 57.7499H72.2559C71.8425 57.7499 71.4668 57.6755 71.0911 57.5265C70.7153 57.3776 70.4147 57.1542 70.1517 56.8936C69.8887 56.6329 69.6632 56.2978 69.5129 55.9627C69.3626 55.5904 69.2875 55.218 69.2875 54.8085V46.2446C69.2875 45.835 69.3626 45.4627 69.5129 45.0904C69.6632 44.718 69.8887 44.4202 70.1517 44.1595C70.4147 43.8989 70.7529 43.6755 71.0911 43.5265C71.4668 43.3776 71.8425 43.3031 72.2559 43.3031H73.1577C73.571 43.2287 73.9467 43.3031 74.3225 43.4893ZM80.7477 57.2659C80.7477 57.4893 80.635 57.601 80.372 57.601H78.2302C78.0048 57.601 77.9296 57.4893 77.9296 57.2659V43.7499C77.9296 43.5265 78.0423 43.4148 78.2678 43.4148H81.8374C82.2507 43.4148 82.6264 43.4893 83.0022 43.6382C83.3779 43.7872 83.6785 44.0106 83.9416 44.2712C84.2046 44.5319 84.43 44.867 84.5803 45.2021C84.7306 45.5744 84.8058 45.9468 84.8058 46.3563V49.2606C84.8058 49.8563 84.6179 50.3776 84.2797 50.8244C83.9416 51.2712 83.4907 51.6436 83.0022 51.9042L85.2567 57.2287C85.2942 57.4521 85.2191 57.5638 85.0312 57.5638H82.8519C82.7392 57.5638 82.664 57.5265 82.5889 57.4521C82.5137 57.3776 82.4386 57.3031 82.401 57.2287L80.6726 52.835V57.2659H80.7477ZM80.7477 49.7446H81.4992C81.6495 49.7446 81.7998 49.7074 81.9125 49.5957C82.0253 49.484 82.0628 49.3351 82.0628 49.1861V46.5053C82.0628 46.3563 82.0253 46.2074 81.9125 46.0957C81.7998 45.984 81.6495 45.9468 81.4992 45.9468H80.7477V49.7446ZM89.728 57.2659C89.728 57.4893 89.6153 57.601 89.3899 57.601H87.2481C87.0227 57.601 86.9099 57.4893 86.9099 57.2659V43.7499C86.9099 43.5265 87.0227 43.4148 87.2481 43.4148H89.3899C89.6153 43.4148 89.728 43.5265 89.728 43.7499V57.2659ZM96.6042 43.4893C96.9799 43.6382 97.2805 43.8616 97.5435 44.1223C97.8066 44.3829 98.032 44.718 98.1823 45.0531C98.3326 45.4255 98.4078 45.7978 98.4078 46.2074V47.101C98.4078 47.3244 98.295 47.4733 98.1072 47.5106L95.9278 48.0691C95.7024 48.1436 95.6272 48.0691 95.6272 47.8457V46.3191C95.6272 46.1702 95.5897 46.0212 95.4769 45.9095C95.3642 45.7978 95.2139 45.7606 95.0636 45.7606H94.8757C94.7255 45.7606 94.5751 45.7978 94.4624 45.9095C94.3497 46.0212 94.3121 46.1702 94.3121 46.3191V47.7712C94.3121 47.9574 94.3497 48.1063 94.4249 48.218C94.4624 48.3297 94.5752 48.4787 94.6879 48.5904L97.8066 50.8989C98.0696 51.1223 98.2199 51.3457 98.295 51.5691C98.3702 51.7925 98.4078 52.0531 98.4453 52.351V54.7712C98.4453 55.1808 98.3702 55.5531 98.2199 55.9255C98.0696 56.2978 97.8441 56.5957 97.5811 56.8563C97.3181 57.117 96.9799 57.3404 96.6418 57.4893C96.266 57.6382 95.8903 57.7127 95.4769 57.7127H94.5752C94.1618 57.7127 93.7861 57.6382 93.4103 57.4893C93.0346 57.3404 92.734 57.117 92.471 56.8563C92.208 56.5957 91.9825 56.2606 91.8322 55.9255C91.6819 55.5531 91.6068 55.1808 91.6068 54.7712V53.4308C91.6068 53.2074 91.7195 53.0585 91.9074 53.0212L94.0867 52.4627C94.3121 52.3882 94.3873 52.4627 94.3873 52.6861V54.6595C94.3873 54.8085 94.4249 54.9574 94.5376 55.0691C94.6503 55.1808 94.8006 55.218 94.9509 55.218H95.1388C95.2891 55.218 95.4394 55.1808 95.5521 55.0691C95.6648 54.9574 95.7024 54.8085 95.7024 54.6595V53.2074C95.7024 53.0212 95.6648 52.835 95.5897 52.6489C95.5521 52.4999 95.4394 52.351 95.2891 52.2393L92.208 49.8936C91.9825 49.6702 91.7946 49.4468 91.6819 49.2233C91.5692 48.9999 91.5316 48.7021 91.5316 48.3297V46.2074C91.5316 45.7978 91.6068 45.4255 91.7571 45.0531C91.9074 44.6808 92.1328 44.3829 92.3958 44.1223C92.6588 43.8616 92.997 43.6382 93.3352 43.4893C93.7109 43.3404 94.0867 43.2659 94.5 43.2659H95.4018C95.8527 43.2287 96.2284 43.3031 96.6042 43.4893ZM103.029 57.2659C103.029 57.4893 102.917 57.601 102.691 57.601H100.55C100.324 57.601 100.211 57.4893 100.211 57.2659V43.7499C100.211 43.5265 100.324 43.4148 100.55 43.4148H102.691C102.917 43.4148 103.029 43.5265 103.029 43.7499V57.2659ZM109.906 43.4893C110.281 43.6382 110.582 43.8616 110.845 44.1223C111.108 44.3829 111.333 44.718 111.484 45.0531C111.634 45.4255 111.709 45.7978 111.709 46.2074V47.101C111.709 47.3244 111.596 47.4733 111.409 47.5106L109.229 48.0691C109.004 48.1436 108.929 48.0691 108.929 47.8457V46.3191C108.929 46.1702 108.891 46.0212 108.778 45.9095C108.666 45.7978 108.515 45.7606 108.365 45.7606H108.177C108.027 45.7606 107.877 45.7978 107.764 45.9095C107.651 46.0212 107.614 46.1702 107.614 46.3191V47.7712C107.614 47.9574 107.651 48.1063 107.726 48.218C107.764 48.3297 107.877 48.4787 107.989 48.5904L111.108 50.8989C111.371 51.1223 111.521 51.3457 111.596 51.5691C111.672 51.7925 111.709 52.0531 111.747 52.351V54.7712C111.747 55.1808 111.672 55.5531 111.521 55.9255C111.371 56.2978 111.146 56.5957 110.883 56.8563C110.619 57.117 110.281 57.3404 109.943 57.4893C109.567 57.6382 109.192 57.7127 108.778 57.7127H107.839C107.426 57.7127 107.05 57.6382 106.674 57.4893C106.298 57.3404 105.998 57.117 105.735 56.8563C105.472 56.5957 105.246 56.2606 105.096 55.9255C104.946 55.5531 104.871 55.1808 104.871 54.7712V53.4308C104.871 53.2074 104.983 53.0585 105.171 53.0212L107.351 52.4627C107.538 52.3882 107.651 52.4627 107.651 52.6861V54.6595C107.651 54.8085 107.689 54.9574 107.801 55.0691C107.914 55.1808 108.064 55.218 108.215 55.218H108.403C108.553 55.218 108.703 55.1808 108.816 55.0691C108.929 54.9574 108.966 54.8085 108.966 54.6595V53.2074C108.966 53.0212 108.929 52.835 108.853 52.6489C108.816 52.4999 108.703 52.351 108.553 52.2393L105.472 49.8936C105.246 49.6702 105.058 49.4468 104.946 49.2233C104.833 48.9999 104.795 48.7021 104.795 48.3297V46.2074C104.795 45.7978 104.871 45.4255 105.021 45.0531C105.171 44.6808 105.397 44.3829 105.66 44.1223C105.923 43.8616 106.261 43.6382 106.599 43.4893C106.975 43.3404 107.35 43.2659 107.764 43.2659H108.666C109.154 43.2287 109.53 43.3031 109.906 43.4893ZM121.403 43.4893C121.779 43.6382 122.08 43.8616 122.343 44.1223C122.606 44.3829 122.831 44.718 122.982 45.0531C123.132 45.4255 123.207 45.7978 123.207 46.2074V47.101C123.207 47.3244 123.094 47.4733 122.906 47.5106L120.727 48.0691C120.502 48.1436 120.426 48.0691 120.426 47.8457V46.3191C120.426 46.1702 120.389 46.0212 120.276 45.9095C120.163 45.7978 120.013 45.7606 119.863 45.7606H119.675C119.525 45.7606 119.374 45.7978 119.262 45.9095C119.149 46.0212 119.111 46.1702 119.111 46.3191V47.7712C119.111 47.9574 119.149 48.1063 119.224 48.218C119.262 48.3297 119.374 48.4787 119.487 48.5904L122.606 50.8989C122.869 51.1223 123.019 51.3457 123.094 51.5691C123.169 51.7925 123.207 52.0531 123.245 52.351V54.7712C123.245 55.1808 123.169 55.5531 123.019 55.9255C122.869 56.2978 122.643 56.5957 122.38 56.8563C122.117 57.117 121.779 57.3404 121.441 57.4893C121.065 57.6382 120.689 57.7127 120.276 57.7127H119.374C118.961 57.7127 118.585 57.6382 118.21 57.4893C117.834 57.3404 117.533 57.117 117.27 56.8563C117.007 56.5957 116.782 56.2606 116.631 55.9255C116.481 55.5531 116.406 55.1808 116.406 54.7712V53.4308C116.406 53.2074 116.519 53.0585 116.707 53.0212L118.886 52.4627C119.074 52.3882 119.186 52.4627 119.186 52.6861V54.6595C119.186 54.8085 119.224 54.9574 119.337 55.0691C119.45 55.1808 119.6 55.218 119.75 55.218H119.938C120.088 55.218 120.239 55.1808 120.351 55.0691C120.464 54.9574 120.502 54.8085 120.502 54.6595V53.2074C120.502 53.0212 120.464 52.835 120.389 52.6489C120.351 52.4999 120.239 52.351 120.088 52.2393L117.007 49.8936C116.782 49.6702 116.594 49.4468 116.481 49.2233C116.368 48.9999 116.331 48.7021 116.331 48.3297V46.2074C116.331 45.7978 116.406 45.4255 116.556 45.0531C116.707 44.6808 116.932 44.3829 117.195 44.1223C117.458 43.8616 117.796 43.6382 118.134 43.4893C118.51 43.3404 118.886 43.2659 119.299 43.2659H120.201C120.652 43.2287 121.028 43.3031 121.403 43.4893ZM130.872 55.1808V57.3031C130.872 57.5265 130.759 57.6382 130.534 57.6382H125.349C125.123 57.6382 125.011 57.5265 125.011 57.3031V43.7872C125.011 43.5638 125.123 43.4521 125.349 43.4521H130.534C130.759 43.4521 130.872 43.5638 130.872 43.7872V45.9095C130.872 46.1329 130.759 46.2446 130.534 46.2446H127.829V48.9255H130.196C130.421 48.9255 130.534 49.0372 130.534 49.2606V51.3829C130.534 51.6063 130.421 51.718 130.196 51.718H127.829V54.9202H130.534C130.759 54.8457 130.872 54.9574 130.872 55.1808ZM135.719 57.2659C135.719 57.4893 135.607 57.601 135.344 57.601H133.202C132.976 57.601 132.901 57.4893 132.901 57.2659V43.7499C132.901 43.5265 133.014 43.4148 133.239 43.4148H136.809C137.222 43.4148 137.598 43.4893 137.974 43.6382C138.35 43.7872 138.65 44.0106 138.913 44.2712C139.176 44.5319 139.402 44.867 139.552 45.2021C139.702 45.5744 139.777 45.9468 139.777 46.3563V49.2606C139.777 49.8563 139.589 50.3776 139.251 50.8244C138.913 51.2712 138.462 51.6436 137.974 51.9042L140.228 57.2287C140.266 57.4521 140.191 57.5638 140.003 57.5638H137.899C137.786 57.5638 137.711 57.5265 137.636 57.4521C137.56 57.3776 137.485 57.3031 137.448 57.2287L135.719 52.835V57.2659ZM135.719 49.7446H136.471C136.621 49.7446 136.771 49.7074 136.884 49.5957C136.997 49.484 137.034 49.3351 137.034 49.1861V46.5053C137.034 46.3563 136.997 46.2074 136.884 46.0957C136.771 45.984 136.621 45.9468 136.471 45.9468H135.719V49.7446ZM149.584 43.7499L146.766 57.2659C146.729 57.4893 146.616 57.601 146.39 57.601H144.286C144.061 57.601 143.948 57.4893 143.911 57.2659L141.092 43.7499C141.055 43.5265 141.168 43.4148 141.393 43.4148H143.986C144.174 43.4148 144.324 43.5265 144.361 43.7499L145.338 52.6116H145.451L146.428 43.7499C146.466 43.5265 146.578 43.4148 146.804 43.4148H149.396C149.509 43.4148 149.622 43.5265 149.584 43.7499ZM153.717 57.2659C153.717 57.4893 153.605 57.601 153.379 57.601H151.238C151.012 57.601 150.899 57.4893 150.899 57.2659V43.7499C150.899 43.5265 151.012 43.4148 151.238 43.4148H153.379C153.605 43.4148 153.717 43.5265 153.717 43.7499V57.2659ZM160.706 43.4893C161.082 43.6382 161.383 43.8616 161.646 44.1223C161.909 44.3829 162.134 44.718 162.284 45.0531C162.435 45.4255 162.51 45.7978 162.51 46.2074V47.6223C162.51 47.8457 162.397 47.9946 162.209 48.0319L160.068 48.4042C159.842 48.4787 159.767 48.4042 159.767 48.1808V46.3563C159.767 46.2074 159.729 46.0585 159.617 45.9468C159.504 45.8351 159.354 45.7978 159.203 45.7978H159.016C158.865 45.7978 158.715 45.8351 158.602 45.9468C158.489 46.0585 158.452 46.2074 158.452 46.3563V54.6967C158.452 54.8457 158.489 54.9946 158.602 55.1063C158.715 55.218 158.865 55.2553 159.016 55.2553H159.203C159.354 55.2553 159.504 55.218 159.617 55.1063C159.729 54.9946 159.767 54.8457 159.767 54.6967V51.867C159.767 51.6436 159.88 51.5691 160.068 51.6436L162.247 51.9414C162.435 52.0159 162.548 52.1648 162.548 52.351V54.8457C162.548 55.2553 162.472 55.6276 162.322 55.9999C162.172 56.3723 161.946 56.6702 161.683 56.9308C161.42 57.1914 161.082 57.4148 160.744 57.5638C160.406 57.7127 159.992 57.7872 159.579 57.7872H158.677C158.264 57.7872 157.888 57.7127 157.513 57.5638C157.137 57.4148 156.836 57.1914 156.573 56.9308C156.31 56.6702 156.085 56.335 155.934 55.9999C155.784 55.6276 155.709 55.2553 155.709 54.8457V46.2819C155.709 45.8723 155.784 45.4999 155.934 45.1276C156.085 44.7553 156.31 44.4574 156.573 44.1968C156.836 43.9361 157.174 43.7127 157.513 43.5638C157.888 43.4148 158.264 43.3404 158.677 43.3404H159.579C159.955 43.2287 160.331 43.3031 160.706 43.4893ZM170.175 55.1808V57.3031C170.175 57.5265 170.062 57.6382 169.837 57.6382H164.652C164.426 57.6382 164.314 57.5265 164.314 57.3031V43.7872C164.314 43.5638 164.426 43.4521 164.652 43.4521H169.837C170.062 43.4521 170.175 43.5638 170.175 43.7872V45.9095C170.175 46.1329 170.062 46.2446 169.837 46.2446H167.132V48.9255H169.499C169.724 48.9255 169.837 49.0372 169.837 49.2606V51.3829C169.837 51.6063 169.724 51.718 169.499 51.718H167.132V54.9202H169.837C170.062 54.8457 170.175 54.9574 170.175 55.1808ZM176.713 43.4893C177.089 43.6382 177.389 43.8616 177.652 44.1223C177.916 44.3829 178.141 44.718 178.291 45.0531C178.442 45.4255 178.517 45.7978 178.517 46.2074V47.101C178.517 47.3244 178.404 47.4733 178.216 47.5106L176.037 48.0691C175.811 48.1436 175.736 48.0691 175.736 47.8457V46.3191C175.736 46.1702 175.699 46.0212 175.586 45.9095C175.473 45.7978 175.323 45.7606 175.173 45.7606H174.985C174.834 45.7606 174.684 45.7978 174.571 45.9095C174.459 46.0212 174.421 46.1702 174.421 46.3191V47.7712C174.421 47.9574 174.459 48.1063 174.534 48.218C174.571 48.3297 174.684 48.4787 174.797 48.5904L177.916 50.8989C178.179 51.1223 178.329 51.3457 178.404 51.5691C178.479 51.7925 178.517 52.0531 178.554 52.351V54.7712C178.554 55.1808 178.479 55.5531 178.329 55.9255C178.179 56.2978 177.953 56.5957 177.69 56.8563C177.427 57.117 177.089 57.3404 176.751 57.4893C176.375 57.6382 175.999 57.7127 175.586 57.7127H174.684C174.271 57.7127 173.895 57.6382 173.519 57.4893C173.144 57.3404 172.843 57.117 172.58 56.8563C172.317 56.5957 172.091 56.2606 171.941 55.9255C171.791 55.5531 171.716 55.1808 171.716 54.7712V53.4308C171.716 53.2074 171.828 53.0585 172.016 53.0212L174.196 52.4627C174.421 52.3882 174.496 52.4627 174.496 52.6861V54.6595C174.496 54.8085 174.534 54.9574 174.647 55.0691C174.759 55.1808 174.91 55.218 175.06 55.218H175.248C175.398 55.218 175.548 55.1808 175.661 55.0691C175.774 54.9574 175.811 54.8085 175.811 54.6595V53.2074C175.811 53.0212 175.774 52.835 175.699 52.6489C175.661 52.4999 175.548 52.351 175.398 52.2393L172.317 49.8936C172.091 49.6702 171.904 49.4468 171.791 49.2233C171.678 48.9999 171.641 48.7021 171.641 48.3297V46.2074C171.641 45.7978 171.716 45.4255 171.866 45.0531C172.016 44.6808 172.242 44.3829 172.505 44.1223C172.768 43.8616 173.106 43.6382 173.444 43.4893C173.82 43.3404 174.196 43.2659 174.609 43.2659H175.511C175.924 43.2287 176.337 43.3031 176.713 43.4893Z" fill="#183647"/>
<path d="M77.2533 12.734C78.3805 13.2181 79.2823 14.1117 79.7332 15.2287C79.9962 15.7872 80.1089 16.4202 80.1089 17.0532V22.117C80.1465 22.4149 79.9211 22.7128 79.6205 22.7872L76.2388 23.3085C75.9006 23.4202 75.7503 23.2713 75.7503 22.9362V17.2021C75.7503 16.7181 75.337 16.3085 74.8485 16.3085H74.5479C74.0594 16.3085 73.6461 16.7181 73.6461 17.2021V33.9202C73.6461 34.4042 74.0594 34.8138 74.5479 34.8138H74.8485C75.337 34.8138 75.7503 34.4042 75.7503 33.9202V26.2128C75.7503 25.8777 75.9006 25.7287 76.2388 25.8404L79.6205 26.2872C79.9211 26.3617 80.1465 26.6596 80.1089 26.9574V34.1064C80.1089 34.7394 79.9962 35.3351 79.7332 35.9308C79.2447 37.0479 78.3429 37.9415 77.2533 38.4255C76.6897 38.6862 76.0509 38.7979 75.4121 38.7979H74.0219C73.3831 38.7979 72.7819 38.6862 72.1807 38.4255C71.0535 37.9415 70.1517 37.0479 69.7008 35.9308C69.4378 35.3723 69.325 34.7394 69.325 34.1064V17.016C69.325 16.383 69.4378 15.7872 69.7008 15.1915C70.1893 14.0745 71.091 13.1808 72.1807 12.6968C72.7443 12.4362 73.3831 12.3245 74.0219 12.3245H75.4497C76.0509 12.3617 76.6897 12.4734 77.2533 12.734ZM94.1242 34.1064C94.1242 34.7394 94.0115 35.3351 93.7485 35.9308C93.26 37.0479 92.3582 37.9415 91.2686 38.4255C90.705 38.6862 90.0662 38.7979 89.4274 38.7979H87.9996C87.3608 38.7979 86.7596 38.6862 86.1584 38.4255C85.0312 37.9415 84.1294 37.0479 83.6785 35.9308C83.4155 35.3723 83.3028 34.7394 83.3028 34.1064V17.016C83.3028 16.383 83.4155 15.7872 83.6785 15.1915C84.167 14.0745 85.0688 13.1808 86.1584 12.6968C86.7221 12.4362 87.3608 12.3245 87.9996 12.3245H89.4274C90.0662 12.3245 90.6674 12.4362 91.2686 12.6968C92.3958 13.1808 93.2976 14.0745 93.7485 15.1915C94.0115 15.75 94.1242 16.383 94.1242 17.016V34.1064ZM89.7656 17.2021C89.7656 16.7181 89.3523 16.3085 88.8638 16.3085H88.5632C88.0747 16.3085 87.6614 16.7181 87.6614 17.2021V33.9202C87.6614 34.4042 88.0747 34.8138 88.5632 34.8138H88.8638C89.3523 34.8138 89.7656 34.4042 89.7656 33.9202V17.2021ZM107.576 34.7021V37.9787C107.614 38.2394 107.426 38.4628 107.2 38.5H98.6332C98.3702 38.5372 98.1447 38.3511 98.1447 38.0904V13.1436C98.1072 12.883 98.295 12.6596 98.5205 12.6223H101.94C102.203 12.5851 102.428 12.7713 102.466 12.9947V34.1436H107.087C107.35 34.1064 107.576 34.2925 107.576 34.5532V34.7021ZM120.802 34.1064C120.802 34.7394 120.689 35.3351 120.426 35.9308C119.938 37.0479 119.036 37.9415 117.947 38.4255C117.383 38.6862 116.744 38.7979 116.105 38.7979H114.678C114.039 38.7979 113.438 38.6862 112.836 38.4255C111.709 37.9415 110.807 37.0479 110.356 35.9308C110.093 35.3723 109.981 34.7394 109.981 34.1064V17.016C109.981 16.383 110.093 15.7872 110.356 15.1915C110.845 14.0745 111.747 13.1808 112.836 12.6968C113.4 12.4362 114.039 12.3245 114.678 12.3245H116.105C116.744 12.3245 117.345 12.4362 117.947 12.6968C119.074 13.1808 119.976 14.0745 120.426 15.1915C120.689 15.75 120.802 16.383 120.802 17.016V34.1064ZM116.444 17.2021C116.444 16.7181 116.03 16.3085 115.542 16.3085H115.241C114.753 16.3085 114.339 16.7181 114.339 17.2021V33.9202C114.339 34.4042 114.753 34.8138 115.241 34.8138H115.542C116.03 34.8138 116.444 34.4042 116.444 33.9202V17.2021ZM136.095 37.9787C136.17 38.3138 136.057 38.5 135.719 38.5H132.338C132.187 38.5 132.037 38.4628 131.924 38.3511C131.774 38.2766 131.699 38.1277 131.624 37.9787L128.918 28.9308V38.5L128.881 38.1277C128.843 38.3511 128.618 38.5372 128.392 38.5H125.086C124.823 38.5372 124.597 38.3511 124.56 38.1277V13.1436C124.522 12.883 124.71 12.6596 124.935 12.6223H130.647C131.285 12.6223 131.887 12.734 132.488 12.9947C133.615 13.4787 134.517 14.3723 134.968 15.4894C135.231 16.0479 135.344 16.6808 135.344 17.3138V23.3457C135.344 24.2021 135.118 25.0585 134.63 25.8032C134.179 26.5106 133.502 27.1064 132.751 27.4787L136.095 37.9787ZM128.918 24.016H130.121C130.609 24.016 131.022 23.6064 131.022 23.1223V17.4628C131.022 16.9787 130.609 16.5691 130.121 16.5691H128.918V24.016ZM150.148 37.9787C150.223 38.2021 150.11 38.4255 149.885 38.4628C149.81 38.5 149.735 38.5 149.697 38.4628H146.315C146.015 38.4628 145.789 38.2766 145.752 37.9787V37.9415L145.451 33.9574H143.159L142.858 37.9415C142.858 38.2394 142.633 38.4628 142.332 38.4628H138.913C138.688 38.5 138.5 38.3511 138.462 38.1277V37.9415L141.28 13.1064C141.28 12.8085 141.543 12.5851 141.844 12.5851H146.804C147.104 12.5479 147.367 12.7713 147.405 13.0691V13.1064L150.148 37.9787ZM145.15 29.8617L144.437 19.8457H144.136L143.422 29.8617H145.15ZM159.466 12.6223C160.105 12.6223 160.706 12.734 161.308 12.9947C162.435 13.4787 163.337 14.3723 163.787 15.4894C164.05 16.0479 164.163 16.6808 164.163 17.3138V33.883C164.163 34.516 164.05 35.1117 163.787 35.7074C163.299 36.8245 162.397 37.7181 161.308 38.2021C160.744 38.4628 160.105 38.5745 159.466 38.5745H153.868C153.605 38.6117 153.379 38.4255 153.342 38.2021V13.1436C153.304 12.883 153.492 12.6596 153.717 12.6223H153.83H159.466ZM159.805 17.4628C159.805 16.9787 159.391 16.5691 158.903 16.5691H157.7V34.5532H158.903C159.391 34.5532 159.805 34.1436 159.805 33.6596V17.4628ZM178.366 34.1064C178.366 34.7394 178.254 35.3351 177.991 35.9308C177.502 37.0479 176.6 37.9415 175.511 38.4255C174.947 38.6862 174.308 38.7979 173.67 38.7979H172.242C171.603 38.7979 171.002 38.6862 170.401 38.4255C169.273 37.9415 168.372 37.0479 167.921 35.9308C167.658 35.3723 167.545 34.7394 167.545 34.1064V17.016C167.545 16.383 167.658 15.7872 167.921 15.1915C168.409 14.0745 169.311 13.1808 170.401 12.6968C170.964 12.4362 171.603 12.3245 172.242 12.3245H173.67C174.308 12.3245 174.91 12.4362 175.511 12.6968C176.638 13.1808 177.54 14.0745 177.991 15.1915C178.254 15.75 178.366 16.383 178.366 17.016V34.1064ZM174.008 17.2021C174.008 16.7181 173.594 16.3085 173.106 16.3085H172.805C172.317 16.3085 171.904 16.7181 171.904 17.2021V33.9202C171.904 34.4042 172.317 34.8138 172.805 34.8138H173.106C173.594 34.8138 174.008 34.4042 174.008 33.9202V17.2021Z" fill="#357D93"/>
<path d="M20.5533 19.7712L23.0708 11.9148L30.3602 14.5584L27.6549 20.4042L24.7992 21.9308L20.5533 19.7712ZM40.3551 14.7818L46.8555 12.5478L48.8845 16.9414V19.5478L44.2253 21.9308L40.3551 14.7818Z" fill="white"/>
<path d="M35.0946 10.1648L28.4064 17.7978L26.0767 23.1595L27.6549 26.6222L33.6292 33.6967H36.6728L41.5574 26.6222L42.4217 19.7712L39.0399 13.2925L35.0946 10.1648ZM28.4064 33.6967L21.9811 29.5265L14.5038 29.0052L10.1075 31.351V34.2552L13.865 38.2765L21.0417 40.2499L27.204 38.8722L28.4064 37.3829V33.6967ZM42.0835 38.2765L50.6505 39.5052L57.6769 36.5265L61.9604 32.8403L59.8187 30.2712L52.905 29.0052L47.9075 30.7552L43.8119 32.8403L41.5574 35.6329L42.0835 38.2765ZM22.1314 51.2339L21.9811 47.1382L24.0853 43.601H27.6549L30.3602 43.1169V46.6169L28.4064 50.4893L26.0767 51.2339H22.1314ZM38.8145 43.7499L40.3551 48.6648L42.4217 50.7127L46.8555 51.8669L48.2081 50.601V47.1382L45.9912 43.7499L42.4217 43.1169L38.8145 42.2605V43.1169V43.7499Z" fill="#F4E495"/>
<path d="M47.9075 57.2289C47.9075 56.931 47.6821 56.6703 47.3815 56.6703C44.864 56.5959 41.595 56.0001 39.3405 53.8033C35.5079 50.0427 36.4097 41.181 36.4473 40.9203L36.5976 39.915V39.6544C36.5976 38.9097 35.9964 38.314 35.2825 38.314C34.531 38.314 33.9298 38.9097 33.9298 39.6544V39.915L34.0801 40.9203C34.1177 41.2182 35.057 50.0427 31.1868 53.8033C28.9324 56.0001 25.6634 56.5959 23.1459 56.6703C22.8453 56.6703 22.5823 56.931 22.5823 57.2289V58.4948C22.5823 58.7927 22.8453 59.0533 23.1459 59.0533H47.3439C47.6445 59.0533 47.9075 58.7927 47.9075 58.4948V57.2289Z" fill="#183647"/>
<path d="M64.7034 30.6436C62.3737 29.1915 59.8187 28.1117 57.1509 27.4787C58.1278 24.7234 58.6163 21.7819 58.5411 18.8404C58.5411 18.6915 58.4284 18.5426 58.2781 18.5053C56.5873 18.1702 54.8213 17.9841 53.0928 17.9841C52.3038 17.9841 51.4771 18.0213 50.6881 18.0958C50.2372 15.4521 49.3729 12.8458 48.1706 10.4255C48.0954 10.2766 47.9451 10.2021 47.7948 10.2394C45.3525 10.8351 43.0228 11.7287 40.8059 12.9202C39.2278 10.7979 37.3867 8.89895 35.3201 7.29789C35.2073 7.18619 35.0195 7.18619 34.9067 7.29789C32.8401 8.93619 30.999 10.8351 29.4209 12.9575C27.2415 11.766 24.8743 10.8724 22.4696 10.2766C22.3193 10.2394 22.169 10.3138 22.0938 10.4628C20.8914 12.883 20.0272 15.4521 19.5763 18.133C18.7873 18.0585 17.9982 18.0213 17.2091 18.0213C15.4807 18.0213 13.7523 18.2075 12.0238 18.5426C11.8735 18.5798 11.7608 18.7287 11.7608 18.8777C11.6857 21.8192 12.1741 24.7234 13.1511 27.516C10.5584 28.149 8.11609 29.1543 5.82404 30.5319C5.67374 30.6436 5.59859 30.8298 5.71132 30.9787C6.38766 32.2447 9.35605 37.4575 14.3159 40.0266C12.7002 41.9628 11.4602 44.1224 10.596 46.4681C10.5209 46.617 10.596 46.8032 10.7463 46.8777C11.7608 47.4362 15.7061 49.3351 19.9145 49.3351H20.2527C20.1399 50.5266 20.1024 51.6809 20.2527 52.8724C20.2527 53.0213 20.403 53.1702 20.5533 53.1702C21.192 53.2447 21.8308 53.2819 22.4696 53.2819C24.6489 53.2819 27.9555 52.9096 30.0972 50.8245C32.4268 48.5532 32.7274 44.8298 32.6898 42.7075C32.6523 41.7766 31.9008 40.9947 30.9614 40.9575H30.3602C28.1809 40.9575 24.8743 41.3298 22.7326 43.4149C22.0187 44.1224 21.4551 44.9415 21.0793 45.8724C20.666 45.9096 20.2902 45.9468 19.8769 45.9468C18.2988 45.9096 16.7582 45.649 15.2928 45.1277C15.105 45.0532 15.0298 44.867 15.0674 44.6809C15.0674 44.6436 15.0674 44.6436 15.105 44.6064C15.8189 43.3404 16.6831 42.1862 17.7352 41.1809C18.5994 41.367 19.5012 41.4415 20.403 41.4415C24.5362 41.4415 28.3688 39.766 30.4354 38.6862C31.2996 38.2394 31.6378 37.1596 31.1869 36.3032C31.1493 36.266 31.1493 36.2287 31.1117 36.1915C29.5336 33.6968 25.9264 28.8936 20.6284 27.4415C19.5012 27.1436 18.2988 26.9947 17.0964 26.9947H16.5328C16.0443 25.8404 15.6686 24.6117 15.4431 23.3458C15.3304 22.7873 15.2553 22.3032 15.2177 21.8192C15.2177 21.633 15.3304 21.4468 15.5559 21.4468C16.0443 21.4096 16.6079 21.3724 17.134 21.3724C19.3509 21.3724 22.3944 21.7447 24.461 23.4202C25.4004 24.2394 26.1519 25.2447 26.6403 26.3617C28.2185 30.9787 32.0135 34.6649 33.9298 36.3404C34.6061 36.9362 35.6207 36.9362 36.2594 36.3404C38.1382 34.7021 41.8205 31.1277 43.4362 26.6224C43.9246 25.3936 44.7137 24.2766 45.7282 23.4202C47.7572 21.7447 50.8384 21.3724 53.0552 21.3724C53.6189 21.3724 54.1449 21.4096 54.6334 21.4468C54.8213 21.4468 54.9716 21.633 54.9716 21.8192C54.934 22.3032 54.8588 22.8245 54.7461 23.3458C54.5207 24.6117 54.1449 25.8404 53.6564 26.9947H53.0928C51.8904 26.9947 50.7256 27.1436 49.5984 27.4415C44.3004 28.8936 40.6932 33.6968 39.1151 36.2287C38.589 37.0479 38.8521 38.1649 39.6787 38.649C39.7163 38.6862 39.7539 38.6862 39.7914 38.7234C41.858 39.8032 45.6906 41.4787 49.8238 41.4787C50.7256 41.4787 51.5898 41.4043 52.4916 41.2181C53.3558 42.0745 54.1073 43.0053 54.7461 44.0479C54.9715 44.383 55.1594 44.7181 55.3097 45.016C53.7316 45.6117 52.0407 45.9096 50.3499 45.9841C49.9366 45.9841 49.5608 45.9468 49.1475 45.9096C48.7718 44.9787 48.2081 44.1596 47.4942 43.4521C45.3525 41.367 42.0459 40.9947 39.8666 40.9947H39.2654C38.326 41.0319 37.5745 41.7766 37.537 42.7447C37.4994 44.867 37.8 48.5904 40.1296 50.8617C42.2714 52.9468 45.5779 53.3192 47.7572 53.3192C48.396 53.3192 49.0348 53.2819 49.6735 53.2075C49.8238 53.2075 49.9741 53.0585 49.9741 52.9096C50.0869 51.7181 50.0869 50.5266 49.9366 49.3724H50.2747C54.4831 49.3724 58.4284 47.4362 59.4429 46.9149C59.5932 46.8404 59.6684 46.6543 59.5932 46.5053C58.729 44.1596 57.4515 41.9628 55.8733 40.0638C61.6222 37.0479 64.7034 30.6436 64.7034 30.6436ZM25.0998 45.8351C25.9264 45.0532 27.3918 44.5319 29.1954 44.383C29.0451 45.8351 28.6694 47.4734 27.6549 48.4415C26.9785 49.1117 25.8513 49.5585 24.461 49.7819C24.0853 49.8564 23.7471 49.5958 23.672 49.2234V49C23.8974 47.8085 24.3107 46.5798 25.0998 45.8351ZM17.0964 30.3458C17.9982 30.3458 18.8624 30.4575 19.7266 30.6809C22.695 31.5 25.0622 33.7713 26.6779 35.8192C26.9034 36.117 26.8658 36.5266 26.5652 36.7873C26.5276 36.8245 26.4525 36.8617 26.3773 36.899C24.461 37.6809 22.432 38.0904 20.3654 38.1649C19.4636 38.1649 18.5994 38.0532 17.7352 37.8298C14.7668 37.0107 12.362 34.7021 10.7839 32.6915C10.5584 32.3936 10.596 31.9841 10.8966 31.7234C10.9342 31.6862 11.0093 31.649 11.0845 31.6117C13.0008 30.8298 15.0674 30.4202 17.0964 30.3458ZM22.8829 18.8032C23.0708 17.3883 23.4465 16.0479 23.935 14.7075C24.0101 14.4841 24.2731 14.3351 24.5362 14.4468C25.5883 14.8564 26.6403 15.3032 27.6549 15.8617C26.9034 17.2766 26.3773 18.8404 26.1143 20.4043C25.0998 19.6968 24.0101 19.1755 22.8829 18.8032ZM35.1322 32.8404C33.6292 31.3883 31.6378 29.1543 30.3978 26.5851C30.2099 26.0638 30.0221 25.5426 29.7966 25.0585C29.496 24.1277 29.3457 23.1968 29.3457 22.2287C29.3457 18.4309 32.1638 14.5958 34.6061 12.1383C34.9067 11.8404 35.3576 11.8404 35.6582 12.1383C37.9503 14.4468 40.9187 18.2075 40.9187 22.2287C40.9187 23.3458 40.6932 24.4255 40.2799 25.4681C40.2048 25.6915 40.092 25.9149 40.0169 26.1383C38.8521 28.7819 36.823 31.2021 35.1322 32.8404ZM44.1501 20.4043C43.8871 18.8032 43.361 17.2766 42.6095 15.8617C43.624 15.3032 44.6385 14.8564 45.6906 14.4468C45.9161 14.3724 46.1791 14.4841 46.2918 14.7075C46.7803 16.0479 47.1185 17.4255 47.3439 18.8404C46.2167 19.1755 45.127 19.7341 44.1501 20.4043ZM42.5344 48.4043C41.5574 47.4362 41.1441 45.8351 40.9938 44.3458C42.835 44.4947 44.3004 45.016 45.0894 45.7979C45.8785 46.5798 46.2918 47.7713 46.4797 48.9628C46.5549 49.3351 46.2918 49.6702 45.9161 49.7447H45.6906C44.338 49.5585 43.2107 49.0745 42.5344 48.4043ZM52.4541 37.7553C51.5898 37.9787 50.7256 38.0904 49.8238 38.0904C47.7572 38.0532 45.7658 37.6064 43.8495 36.8617C43.5113 36.7128 43.3234 36.3404 43.4737 35.9681C43.5113 35.8936 43.5489 35.8564 43.5865 35.7819C45.1646 33.7713 47.5694 31.4628 50.5378 30.6436C51.402 30.4202 52.2662 30.3085 53.168 30.3085C55.2346 30.3458 57.2636 30.7926 59.1423 31.5372C59.4805 31.6862 59.6684 32.0958 59.5181 32.4309C59.4805 32.5053 59.4429 32.5426 59.4054 32.5798C57.7896 34.6649 55.4225 36.9734 52.4541 37.7553Z" fill="#183647"/>
<path d="M26.941 37.5319L16.7207 33.9946C16.5704 33.9574 16.4577 33.7712 16.4952 33.6223C16.5328 33.4734 16.7207 33.3617 16.871 33.3989L27.5046 35.484C28.0682 35.5957 28.4815 36.117 28.3688 36.7127C28.2561 37.2712 27.73 37.6808 27.1288 37.5691H27.0913L26.941 37.5319ZM34.0425 32.8404L34.794 20.4042C34.794 20.2553 34.9443 20.1063 35.0946 20.1063C35.2449 20.1063 35.3952 20.2553 35.3952 20.4042L36.1467 32.8404C36.1843 33.4361 35.7334 33.9202 35.1322 33.9574C34.531 33.9946 34.0425 33.5478 34.005 32.9521C34.0425 32.9149 34.0425 32.8776 34.0425 32.8404ZM29.9469 45.1276L26.3022 47.6223C26.1519 47.734 25.964 47.6968 25.8889 47.5478C25.8137 47.4361 25.8137 47.2872 25.8889 47.1755L28.4815 43.601C28.8573 43.1542 29.5336 43.0798 29.9845 43.4521C30.3978 43.7872 30.5105 44.3829 30.2099 44.8298C30.1348 44.9415 30.0596 45.0532 29.9469 45.1276ZM41.7453 43.6383L44.0374 46.9149C44.1125 47.0638 44.0749 47.25 43.9622 47.3244C43.8495 47.3989 43.7368 47.3989 43.6241 47.3244L40.2799 45.0904C39.7914 44.718 39.7163 44.0478 40.0545 43.601C40.3926 43.1542 40.9938 43.0425 41.4823 43.3404C41.595 43.4149 41.6702 43.4893 41.7453 43.6383ZM42.7223 35.5212L53.3559 33.4361C53.5062 33.3989 53.694 33.4734 53.7316 33.6595C53.7692 33.8457 53.694 33.9946 53.5062 34.0319L43.2859 37.5691C42.7223 37.7553 42.1211 37.4574 41.9332 36.8989C41.7453 36.3776 42.0459 35.7819 42.572 35.5957L42.7223 35.5212ZM25.0622 20.7021L24.5362 16.6063C24.5362 16.4202 24.6489 16.2712 24.7992 16.2712C24.9119 16.2712 25.0247 16.3085 25.0998 16.4202L27.0913 20.0691C27.3918 20.5904 27.1664 21.2234 26.6404 21.5212C26.1143 21.8191 25.4755 21.5957 25.1749 21.0744C25.0998 20.9627 25.0622 20.851 25.0622 20.7021ZM43.2107 20.0691L45.2022 16.4202C45.2773 16.2712 45.4652 16.234 45.6155 16.3085C45.7282 16.3829 45.7658 16.4946 45.7658 16.6063L45.2398 20.7021C45.1646 21.2978 44.6386 21.7074 44.0749 21.6702C43.4738 21.5957 43.0604 21.0744 43.098 20.5159V20.4415C43.098 20.2925 43.1356 20.1808 43.2107 20.0691Z" fill="#183647"/>
</svg>
