<?xml version="1.0" encoding="UTF-8"?><svg id="Layer_1" xmlns="http://www.w3.org/2000/svg" viewBox="0 0 430.67 138.67"><defs><style>.cls-1{fill:#252b6a;}.cls-2{fill:#119cd8;}.cls-3{fill:#179bd7;}.cls-4{fill:#262a69;}</style></defs><g><path class="cls-2" d="M61.17,31.7c-20.31,0-36.77,16.46-36.77,36.77s16.46,36.77,36.77,36.77,36.77-16.46,36.77-36.77S81.48,31.7,61.17,31.7Zm0,47.3c-5.81,0-10.52-4.71-10.52-10.52s4.71-10.52,10.52-10.52,10.52,4.71,10.52,10.52-4.71,10.52-10.52,10.52Z"/><g><path class="cls-1" d="M95.58,105.94c-19.89,18.28-51.41,17.66-70.56-1.49-9.63-9.63-14.94-22.44-14.94-36.06s5.3-26.43,14.94-36.06c9.63-9.63,22.44-14.94,36.06-14.94,12.85,0,25.08,4.77,34.5,13.44l-19.77,19.77c-4.13-3.43-9.33-5.31-14.73-5.31-6.17,0-11.97,2.4-16.33,6.76-4.36,4.35-6.75,10.15-6.75,16.33s2.4,11.97,6.75,16.33c.84,.84,2.21,.84,3.06,0,.84-.84,.84-2.21,0-3.06-3.54-3.54-5.49-8.25-5.49-13.27s1.95-9.73,5.49-13.27c3.54-3.55,8.26-5.5,13.27-5.5s9.73,1.95,13.27,5.5c.82,.82,2.24,.82,3.06,0l22.79-22.79c.4-.4,.63-.96,.63-1.53s-.23-1.12-.63-1.53c-10.45-10.45-24.34-16.2-39.12-16.2s-28.67,5.75-39.12,16.2C11.51,39.72,5.76,53.61,5.76,68.38s5.75,28.67,16.21,39.12c10.43,10.43,24.32,16.18,39.12,16.18,14.79,0,28.69-5.75,39.12-16.18,.4-.4,.63-.96,.63-1.53s-.23-1.12-.63-1.53l-4.62,1.49Z"/><path class="cls-4" d="M51.61,83.57h0c.73,2.04-.25,4.36-2.29,5.09s-4.41-.4-5.14-2.44c-.73-2.04,.45-4.27,2.49-4.99s4.21,.31,4.94,2.35Z"/><polygon class="cls-4" points="99.02 116.07 89.58 104.19 102.43 103.67 99.02 116.07"/></g></g><g><path class="cls-3" d="M119.64,57.32h6.58l1.84-39.79h-6.9v-6.5h13.56l16.85,33.14,16.85-33.14h13.4v6.5h-6.82l1.76,39.79h6.66v6.5h-20.38v-6.5h6.5l-1.2-32.81-16.21,31.29h-1.36l-16.21-31.29-1.2,32.81h6.5v6.5h-20.22v-6.5Z"/><path class="cls-3" d="M188.77,58.04h5.62v-22.87h-5.62v-5.94h12.52v28.8h5.54v5.78h-18.05v-5.78Zm3.29-41.16c0-2.73,2.33-4.97,5.05-4.97s4.97,2.25,4.97,4.97-2.41,5.05-5.05,5.05-4.97-2.25-4.97-5.05Z"/><path class="cls-3" d="M211.92,57.32h6.42V17.52h-6.42v-6.5h20.7c11.15,0,19.74,6.5,19.74,16.93,0,11.31-8.18,17.49-20.22,17.49-2.73,0-5.13-.08-6.5-.16v12.03h6.9v6.5h-20.62v-6.5Zm32.97-29.36c0-6.5-5.38-10.43-12.44-10.43h-6.82v21.34c1.36,.08,3.53,.16,6.98,.16,7.62,0,12.28-4.17,12.28-11.07Z"/><path class="cls-3" d="M283.45,33.65c0,2.49-2.01,4.65-4.41,4.65s-3.93-1.44-4.57-2.97c-2.57,.8-5.54,3.69-7.22,6.98v15.73h6.34v5.78h-17.53v-5.78h4.37v-22.87h-4.37v-5.94h10.95v7.86c2.73-4.73,6.74-8.5,10.75-8.5,3.77,0,5.7,2.33,5.7,5.05Z"/><path class="cls-3" d="M285.58,46.57c0-9.71,7.06-17.97,18.05-17.97s18.05,8.18,18.05,17.97-7.14,17.89-18.05,17.89-18.05-8.18-18.05-17.89Zm28.96,0c0-7.06-4.49-12.11-10.91-12.11s-10.99,5.05-10.99,12.11,4.49,12.04,10.99,12.04,10.91-4.97,10.91-12.04Z"/><path class="cls-3" d="M324.15,73.77h5.38V35.17h-5.38v-5.94h11.95v4.49c2.89-2.97,6.1-5.13,11.07-5.13,9.07,0,16.13,7.22,16.13,17.73,0,9.95-6.98,18.13-16.77,18.13-3.93,0-7.38-1.44-10.11-3.69v13h6.18v5.78h-18.45v-5.78Zm32.01-27.36c0-7.22-4.41-11.79-10.27-11.79-3.93,0-6.9,1.85-9.47,4.41v16.13c2.41,1.93,5.46,3.29,9.31,3.29,5.86,0,10.43-4.73,10.43-12.04Z"/><path class="cls-3" d="M367.56,58.04h5.62v-22.87h-5.62v-5.94h12.52v28.8h5.54v5.78h-18.05v-5.78Zm3.29-41.16c0-2.73,2.33-4.97,5.05-4.97s4.97,2.25,4.97,4.97-2.41,5.05-5.05,5.05-4.97-2.25-4.97-5.05Z"/><path class="cls-3" d="M388.9,54.59c0-6.34,5.62-10.43,13.56-10.43,3.61,0,7.62,.8,9.47,1.36v-3.93c0-2.01-.56-3.61-1.52-4.81-1.44-1.76-3.85-2.65-7.22-2.65-2.17,0-3.45,.48-4.49,1.04,.24,.56,.4,1.28,.4,1.93,0,2.25-1.68,3.93-4.01,3.93s-4.09-1.69-4.09-4.09c0-4.09,4.49-8.34,13.32-8.34,5.38,0,9.31,1.61,11.63,4.33,1.77,2.09,2.65,4.81,2.65,7.94v17.17h5.38v5.78h-11.87v-4.17c-2.81,2.65-7.22,4.81-11.88,4.81-6.34,0-11.31-3.61-11.31-9.87Zm23.03,.56v-5.62c-2.33-.64-5.29-1.2-8.42-1.2-4.89,0-7.62,2.33-7.62,5.7,0,3.13,2.33,5.21,6.34,5.21,3.69,0,7.06-1.76,9.71-4.09Z"/></g><g><path class="cls-4" d="M120.53,115.45c0-3.37,2.01-5.54,4.81-5.54s4.81,2.17,4.81,4.41c0,1.44-.4,2.49-1.04,3.45,1.85,1.6,5.38,2.81,9.63,2.81,6.42,0,10.51-3.13,10.51-8.34s-4.81-7.3-10.43-9.39c-9.47-3.53-16.29-6.74-16.29-16.13,0-8.26,6.58-14.44,16.77-14.44,9.23,0,16.45,4.97,16.45,10.83,0,3.29-2.09,5.22-4.65,5.22-3.05,0-4.89-2.25-4.89-4.65,0-1.28,.4-2.09,.88-2.81-1.44-1.28-4.57-2.25-7.86-2.25-5.86,0-9.39,3.13-9.39,7.54,0,5.05,4.73,7.22,10.75,9.55,9.07,3.37,15.89,6.66,15.89,15.97s-7.54,15.32-17.89,15.32-18.05-5.86-18.05-11.55Z"/><path class="cls-4" d="M167.99,110.96c.96,6.58,5.78,9.79,12.52,9.79,4.41,0,8.18-1.36,12.28-3.69l-.56,6.34c-3.61,2.25-8.02,3.29-12.76,3.29-11.15,0-18.69-7.22-18.69-17.81,0-9.71,6.66-18.05,17.17-18.05s16.29,7.62,16.29,16.45c0,1.28-.16,2.65-.32,3.69h-25.91Zm0-5.13h19.34c-.32-5.54-3.69-9.31-9.55-9.31-4.65,0-8.91,3.05-9.79,9.31Z"/><path class="cls-4" d="M210.51,97.48c3.29-3.53,7.62-6.66,12.6-6.66,4.33,0,7.3,1.69,9.07,4.41,1.12,1.93,1.77,4.33,1.77,7.22v17.81h5.38v5.78h-17.41v-5.78h5.13v-16.29c0-1.68-.24-3.05-.8-4.09-.96-1.85-2.65-2.73-5.13-2.73-3.77,0-7.38,2.25-10.35,5.21v17.89h5.13v5.78h-17.33v-5.78h5.38v-22.87h-5.38v-5.94h11.95v6.02Z"/><path class="cls-4" d="M241.05,108.95c0-9.87,6.98-18.13,16.85-18.13,4.33,0,7.94,1.61,10.27,3.77v-15.19h-5.94v-5.94h12.84v46.8h5.38v5.78h-12.2v-4.41c-2.73,2.89-6.18,5.05-10.99,5.05-9.15,0-16.21-7.22-16.21-17.73Zm27.12,7.3v-16.05c-2.49-1.93-5.46-3.37-9.47-3.37-5.94,0-10.51,4.73-10.59,12.04,0,7.22,4.57,11.79,10.43,11.79,3.93,0,7.06-1.85,9.63-4.41Z"/><path class="cls-4" d="M283.49,116.81c0-6.34,5.62-10.43,13.56-10.43,3.61,0,7.62,.8,9.47,1.36v-3.93c0-2.01-.56-3.61-1.52-4.81-1.44-1.76-3.85-2.65-7.22-2.65-2.17,0-3.45,.48-4.49,1.04,.24,.56,.4,1.28,.4,1.93,0,2.25-1.68,3.93-4.01,3.93s-4.09-1.69-4.09-4.09c0-4.09,4.49-8.34,13.32-8.34,5.38,0,9.31,1.61,11.63,4.33,1.76,2.09,2.65,4.81,2.65,7.94v17.17h5.38v5.78h-11.87v-4.17c-2.81,2.65-7.22,4.81-11.88,4.81-6.34,0-11.31-3.61-11.31-9.87Zm23.03,.56v-5.62c-2.33-.64-5.29-1.2-8.42-1.2-4.89,0-7.62,2.33-7.62,5.7,0,3.13,2.33,5.21,6.34,5.21,3.69,0,7.06-1.76,9.71-4.09Z"/></g></svg>