<svg width="122" height="53" viewBox="0 0 122 53" fill="none" xmlns="http://www.w3.org/2000/svg">
<g clip-path="url(#clip0_813_1142)">
<path d="M24.8275 9.72607C15.7273 9.72607 8.35205 17.0992 8.35205 26.197C8.35205 35.2947 15.7273 42.6679 24.8275 42.6679C33.9278 42.6679 41.303 35.2947 41.303 26.197C41.303 17.0992 33.9278 9.72607 24.8275 9.72607ZM24.8275 30.9138C22.2242 30.9138 20.1138 28.804 20.1138 26.2015C20.1138 23.5989 22.2242 21.4891 24.8275 21.4891C27.4308 21.4891 29.5412 23.5989 29.5412 26.2015C29.5412 28.804 27.4308 30.9138 24.8275 30.9138Z" fill="#119CD8"/>
<path d="M40.2455 42.9761C31.3334 51.1646 17.2103 50.8868 8.62979 42.3087C4.3149 37.995 1.93565 32.2568 1.93565 26.1558C1.93565 20.0548 4.3149 14.3167 8.62979 10.003C12.9447 5.68479 18.6844 3.31069 24.7871 3.31069C30.5448 3.31069 36.0247 5.44738 40.2455 9.33106L31.3872 18.1869C29.5367 16.6505 27.2067 15.8083 24.7871 15.8083C22.0226 15.8083 19.4238 16.8834 17.4702 18.8364C15.5166 20.785 14.4457 23.3831 14.4457 26.1514C14.4457 28.9196 15.5211 31.5132 17.4702 33.4663C17.8466 33.8426 18.4604 33.8426 18.8413 33.4663C19.2176 33.09 19.2176 32.4763 18.8413 32.0956C17.2551 30.5099 16.3814 28.4 16.3814 26.1514C16.3814 23.9027 17.2551 21.7929 18.8413 20.2071C20.4274 18.6169 22.5423 17.7434 24.7871 17.7434C27.032 17.7434 29.1468 18.6169 30.733 20.2071C31.1004 20.5745 31.7367 20.5745 32.1041 20.2071L42.3156 9.9985C42.4948 9.81932 42.5978 9.56847 42.5978 9.31314C42.5978 9.05781 42.4948 8.81144 42.3156 8.62779C37.6332 3.95125 31.4096 1.37109 24.7871 1.37109C18.1647 1.37109 11.941 3.95125 7.26318 8.63227C2.57639 13.3133 0 19.5352 0 26.1558C0 32.7764 2.57639 38.9984 7.26318 43.6794C11.9365 48.3515 18.1602 50.9271 24.7916 50.9271C31.4185 50.9271 37.6467 48.3515 42.32 43.6794C42.4993 43.5002 42.6023 43.2494 42.6023 42.9941C42.6023 42.7387 42.4993 42.4924 42.32 42.3087L40.25 42.9761H40.2455Z" fill="#252B6A"/>
<path d="M20.5439 32.9553C20.871 33.8691 20.4319 34.9084 19.5178 35.2354C18.6038 35.5624 17.5419 35.0562 17.2148 34.1424C16.8877 33.2286 17.4164 32.2297 18.3305 31.9071C19.2445 31.5801 20.2168 32.046 20.5439 32.9598" fill="#262A69"/>
<path d="M41.7868 47.513L37.557 42.1959L43.3147 41.9585L41.7868 47.513Z" fill="#262A69"/>
<path d="M98.9692 49.3367C98.0685 49.3367 97.4905 49.0859 97.2038 48.5797C97.0604 48.2572 96.9887 47.8943 96.9887 47.3882V38.9892H100.457V36.324H96.9887V31.4951L93.8881 32.7583V36.324H91.2534V38.9892H93.8881V47.9257C93.8881 48.7902 94.0673 49.5831 94.3585 50.1968C95.0441 51.5317 96.3748 52.1453 98.1089 52.1453C99.0005 52.1453 99.7802 51.9796 100.461 51.7422V49.0635C99.9549 49.2247 99.4441 49.3322 98.9736 49.3322" fill="#262A69"/>
<path d="M57.635 48.9387H60.5206V31.0612H57.635V28.1406H66.9369C71.9463 28.1406 75.8042 31.0612 75.8042 35.7467C75.8042 40.8264 72.1255 43.6036 66.7218 43.6036C65.4941 43.6036 64.4143 43.5678 63.8004 43.532V48.9387H66.9011V51.8593H57.635V48.9387ZM72.4526 35.7467C72.4526 32.8261 70.0375 31.0612 66.8652 31.0612H63.8004V40.6472C64.4143 40.6831 65.3866 40.7189 66.9369 40.7189C70.3601 40.7189 72.4526 38.8465 72.4526 35.7467Z" fill="#262A69"/>
<path d="M76.3151 47.7154C76.3151 44.8665 78.8377 43.0299 82.4088 43.0299C84.0308 43.0299 85.832 43.3883 86.661 43.6436V41.8787C86.661 40.9783 86.41 40.2571 85.9754 39.7151C85.3257 38.9223 84.2459 38.5281 82.7314 38.5281C81.7591 38.5281 81.1811 38.7431 80.7151 38.9984C80.8226 39.2493 80.8943 39.5763 80.8943 39.863C80.8943 40.8708 80.1371 41.6279 79.0931 41.6279C78.0491 41.6279 77.256 40.8708 77.256 39.7913C77.256 37.9547 79.2723 36.042 83.2422 36.042C85.6573 36.042 87.4227 36.7632 88.4711 37.9861C89.2642 38.9223 89.6585 40.1496 89.6585 41.5562V49.2698H91.7331V51.8634H86.7371V49.991C85.4736 51.1825 83.4931 52.1545 81.4006 52.1545C78.5509 52.1545 76.3151 50.533 76.3151 47.7199M86.661 47.9707V45.4488C85.617 45.1621 84.2817 44.9068 82.8748 44.9068C80.6748 44.9068 79.4515 45.9505 79.4515 47.4646C79.4515 48.8711 80.4955 49.8073 82.3012 49.8073C83.9591 49.8073 85.4736 49.0145 86.6654 47.9707" fill="#262A69"/>
<path d="M120.333 49.3371C119.433 49.3371 118.855 49.0862 118.568 48.58C118.447 48.3113 118.38 48.0111 118.362 47.6349V41.2651C118.362 39.8227 117.999 38.5998 117.318 37.695C116.525 36.6513 115.189 36.0376 113.424 36.0376C111.224 36.0376 109.387 37.3366 107.908 38.9224V28.4897H102.733V31.155H104.812V49.2609H102.733V51.8545H110.216V49.2609H107.908V41.2248C109.208 39.8899 110.83 38.882 112.523 38.882C113.46 38.882 114.181 39.1687 114.652 39.7466C115.05 40.2528 115.265 40.9336 115.265 41.946L115.257 47.9305C115.257 48.795 115.436 49.5879 115.727 50.2016C116.413 51.5365 117.748 52.1501 119.477 52.1501C120.315 52.1501 120.947 51.9217 121.458 51.6126V49.1758C121.072 49.2743 120.696 49.3371 120.342 49.3371" fill="#262A69"/>
<path d="M51.7877 12.2423C51.7877 5.31262 56.815 0 63.89 0C70.965 0 75.8131 5.34845 75.8131 12.2423C75.8131 19.1362 70.7858 24.4846 63.7108 24.4846C56.6358 24.4846 51.7877 19.1362 51.7877 12.2423ZM72.4705 12.2423C72.4705 6.96553 68.8412 3.01466 63.8183 3.01466C58.7955 3.01466 55.1258 6.92969 55.1258 12.2423C55.1258 17.5549 58.7552 21.47 63.8183 21.47C68.8815 21.47 72.4705 17.5549 72.4705 12.2423Z" fill="#179BD7"/>
<path d="M109.45 11.2747C110.924 9.69348 112.859 8.2959 115.086 8.2959C117.026 8.2959 118.353 9.04844 119.146 10.2713C119.648 11.1314 119.934 12.2109 119.934 13.501V21.4699H122.005V24.0546H114.549V21.4699H116.847V14.1819C116.847 13.4293 116.74 12.8157 116.489 12.3498C116.059 11.5256 115.306 11.1269 114.19 11.1269C112.501 11.1269 110.888 12.1303 109.557 13.4607V21.4655H111.52V24.059H104.1V21.4655H106.506V11.2389H104.1V8.58258H109.45V11.2747Z" fill="#179BD7"/>
<path d="M95.0801 8.57861V11.1677H97.6655L95.1518 19.9967L91.1281 10.2674H89.2283L85.2405 19.9967L82.7269 11.1677H85.0613V8.57861H77.5562V11.2394H79.8189L83.7261 24.0596H86.1053L90.0528 14.6124L94.0361 24.0596H96.4109L100.287 11.2394H102.549V8.57861H95.0801Z" fill="#179BD7"/>
</g>
<defs>
<clipPath id="clip0_813_1142">
<rect width="122" height="52.1452" fill="white"/>
</clipPath>
</defs>
</svg>
