<svg fill="currentColor" height="20" viewBox="0 0 10 11" xmlns="http://www.w3.org/2000/svg">
<path d="M6.875 5.25C6.875 5.69922 6.83594 6.10938 6.79688 6.5H3.18359C3.14453 6.10938 3.10547 5.69922 3.10547 5.25C3.10547 4.82031 3.14453 4.41016 3.18359 4H6.79688C6.83594 4.41016 6.875 4.82031 6.875 5.25ZM9.82422 4C9.94141 4.41016 10 4.82031 10 5.25C10 5.69922 9.94141 6.10938 9.82422 6.5H7.42188C7.46094 6.10938 7.5 5.67969 7.5 5.25C7.5 4.82031 7.46094 4.41016 7.42188 4H9.82422ZM9.62891 3.375H7.34375C7.14844 2.14453 6.75781 1.08984 6.26953 0.425781C7.79297 0.835938 9.04297 1.92969 9.62891 3.375ZM6.71875 3.375H3.26172C3.37891 2.67188 3.57422 2.04688 3.78906 1.53906C4.00391 1.07031 4.21875 0.738281 4.45312 0.523438C4.66797 0.328125 4.84375 0.25 5 0.25C5.13672 0.25 5.3125 0.328125 5.52734 0.523438C5.76172 0.738281 5.97656 1.07031 6.19141 1.53906C6.40625 2.04688 6.60156 2.67188 6.71875 3.375ZM0.351562 3.375C0.9375 1.92969 2.1875 0.835938 3.71094 0.425781C3.22266 1.08984 2.83203 2.14453 2.63672 3.375H0.351562ZM2.55859 4C2.51953 4.41016 2.48047 4.82031 2.48047 5.25C2.48047 5.67969 2.51953 6.10938 2.55859 6.5H0.15625C0.0390625 6.10938 0 5.69922 0 5.25C0 4.82031 0.0390625 4.41016 0.15625 4H2.55859ZM3.78906 8.98047C3.57422 8.47266 3.37891 7.84766 3.26172 7.125H6.71875C6.60156 7.84766 6.40625 8.47266 6.19141 8.98047C5.97656 9.44922 5.76172 9.78125 5.52734 9.99609C5.3125 10.1914 5.13672 10.25 4.98047 10.25C4.84375 10.25 4.66797 10.1914 4.45312 9.99609C4.21875 9.78125 4.00391 9.44922 3.78906 8.98047ZM3.71094 10.0938C2.1875 9.68359 0.9375 8.58984 0.351562 7.125H2.63672C2.83203 8.375 3.22266 9.42969 3.71094 10.0938ZM6.26953 10.0938C6.75781 9.42969 7.14844 8.375 7.34375 7.125H9.62891C9.04297 8.58984 7.79297 9.68359 6.26953 10.0938Z"/>
</svg>
