<svg  height="30" viewBox="0 0 41 30" fill="currentColor" xmlns="http://www.w3.org/2000/svg">
<path fill-rule="evenodd" clip-rule="evenodd" d="M37.3923 3.1035C35.3962 1.1074 32.736 0 30.0758 0C27.7105 0 25.4937 0.8867 23.8688 2.5117L20.4684 5.91015L17.0699 2.5117C13.5211 -1.0352 7.46241 -0.7383 3.61891 3.1035C1.77126 4.9492 0.663811 7.38865 0.515411 9.9005C0.366971 12.4864 1.25566 14.8497 3.02906 16.549L13.2266 26.7465C13.2266 26.8188 13.3008 26.8188 13.3008 26.8188L13.7441 27.2621L13.8184 27.3363L13.8926 27.4106C14.1875 27.7055 14.4082 27.9282 14.7051 28.1489C14.7793 28.2231 14.8516 28.2973 14.9258 28.3715C15 28.3715 15 28.4457 15.0742 28.4457H15.1484C15.2227 28.4457 15.2227 28.518 15.2949 28.518C15.3691 28.518 15.3691 28.5922 15.4434 28.5922C15.7402 28.7407 16.0352 28.9614 16.3301 29.1098L16.4043 29.184C16.5527 29.2583 16.6269 29.3325 16.7734 29.3325H16.9219C18.252 29.9223 20.1738 30.2915 22.4649 29.7016C22.5371 29.7016 22.6856 29.6274 22.7598 29.6274H22.9824C23.0547 29.6274 23.1289 29.5532 23.2774 29.5532H23.3516C24.7559 29.0356 26.3067 28.0747 27.9336 26.5981L37.9826 16.5491C39.6838 14.7776 40.5705 12.4124 40.4963 9.90058C40.3478 7.31463 39.2404 4.94943 37.3928 3.10358L37.3923 3.1035ZM18.6948 16.8455L26.2318 24.529V24.6032C26.2318 24.6755 26.2318 24.6755 26.1575 24.7497C26.1575 24.8239 26.1575 24.8239 26.0853 24.8981C25.9368 25.1188 25.7884 25.4899 25.4193 25.8591L17.6593 17.8786C17.2901 17.5095 16.6983 17.5095 16.3292 17.8786C15.96 18.2477 15.96 18.8395 16.3292 19.2087L23.8682 26.9667C23.3506 27.2616 22.833 27.4101 22.3154 27.5585L15.2214 20.3185C14.8503 19.9474 14.2605 19.9474 13.8913 20.3185C13.5202 20.6876 13.5202 21.2775 13.8913 21.6466L19.9498 27.8536C19.0631 27.7794 18.1764 27.6329 17.4381 27.2618C17.1412 27.1153 16.8463 26.9669 16.5514 26.7462C16.403 26.672 16.2545 26.5235 16.1081 26.3751C15.9596 26.2286 15.8112 26.0802 15.6647 25.9317L15.5163 25.7853C15.442 25.711 15.3678 25.6368 15.2213 25.5626L15.1471 25.4903L10.5651 20.9083L4.72707 15.0723C3.47123 13.8164 2.80518 12.043 2.87943 10.0488C2.95365 8.05268 3.84037 6.20698 5.31887 4.72828C8.34817 1.69898 13.0044 1.40409 15.6644 4.13649L19.0628 7.53493L16.4769 10.1209L18.0277 11.6736L18.471 12.117L19.5062 13.1502L21.0589 14.7029L25.0492 18.6912C26.0101 19.7264 26.6019 20.9822 26.6742 22.3865L20.0982 15.736C19.729 15.3669 19.1372 15.3669 18.7681 15.736C18.3247 15.9587 18.3247 16.5485 18.6939 16.8454L18.6948 16.8455ZM36.4313 14.9979L28.8198 22.6073C28.8198 20.539 28.0053 18.5449 26.5288 17.0664L22.3159 12.8554L24.312 10.8612C24.7553 10.4179 24.7553 9.75185 24.312 9.3085C23.8686 8.86514 23.2026 8.86514 22.7592 9.3085L20.7631 11.3046L20.0248 10.5644L19.5814 10.121L20.9857 8.71864L25.5678 4.13659C26.7494 2.95494 28.3764 2.29089 30.1498 2.29089C32.2182 2.29089 34.2885 3.17759 35.8393 4.72839C37.3178 6.20689 38.2046 8.12684 38.2788 10.0489C38.353 11.8946 37.687 13.668 36.4311 14.9981L36.4313 14.9979Z" />
</svg>
