<svg width="56" height="56" viewBox="0 0 76 56" fill="none" xmlns="http://www.w3.org/2000/svg">
<path fill-rule="evenodd" clip-rule="evenodd" d="M70.0943 5.79315C66.3019 2.06713 61.2477 0 56.1934 0C51.6996 0 47.4878 1.65516 44.4004 4.68846L37.9399 11.0322L31.483 4.68846C24.7404 -1.93236 13.2293 -1.37815 5.92686 5.79315C2.41643 9.23842 0.312333 13.792 0.030381 18.4808C-0.251647 23.3078 1.43682 27.7192 4.80618 30.8912L24.1809 49.9263C24.1809 50.0612 24.3219 50.0612 24.3219 50.0612L25.1642 50.8888L25.3052 51.0274L25.4463 51.1659C26.0066 51.7164 26.4259 52.1321 26.99 52.5441C27.131 52.6826 27.2683 52.8211 27.4093 52.9597C27.5503 52.9597 27.5503 53.0982 27.6913 53.0982H27.8323C27.9733 53.0982 27.9733 53.2331 28.1106 53.2331C28.2517 53.2331 28.2517 53.3717 28.3927 53.3717C28.9567 53.6487 29.5171 54.0607 30.0774 54.3378L30.2184 54.4764C30.5004 54.6149 30.6414 54.7535 30.9197 54.7535H31.2017C33.7289 55.8545 37.3803 56.5436 41.7331 55.4425C41.8704 55.4425 42.1525 55.304 42.2935 55.304H42.7165C42.8538 55.304 42.9948 55.1654 43.2768 55.1654H43.4178C46.0859 54.1992 49.0324 52.4056 52.1235 49.6493L71.216 30.8913C74.4481 27.5846 76.1329 23.1696 75.9918 18.4809C75.7098 13.6538 73.6058 9.23885 70.0953 5.7933L70.0943 5.79315ZM34.5701 31.4446L48.89 45.787V45.9256C48.89 46.0605 48.89 46.0605 48.749 46.199C48.749 46.3376 48.749 46.3376 48.6117 46.4761C48.3297 46.8881 48.0477 47.5808 47.3463 48.2699L32.6028 33.3731C31.9014 32.684 30.777 32.684 30.0757 33.3731C29.3743 34.0621 29.3743 35.1668 30.0757 35.8559L44.3993 50.3374C43.4159 50.8879 42.4326 51.165 41.4492 51.442L27.971 37.9275C27.2659 37.2348 26.1452 37.2348 25.4439 37.9275C24.7388 38.6166 24.7388 39.7176 25.4439 40.4066L36.9547 51.9929C35.27 51.8544 33.5852 51.5809 32.1826 50.8882C31.6186 50.6148 31.0582 50.3377 30.4979 49.9258C30.2159 49.7872 29.9339 49.5101 29.6556 49.2331C29.3735 48.9596 29.0915 48.6825 28.8132 48.4055L28.5312 48.132C28.3902 47.9935 28.2491 47.855 27.9708 47.7164L27.8298 47.5815L19.1242 39.0284L8.03231 28.1347C5.64627 25.7904 4.38081 22.48 4.52188 18.7576C4.66289 15.0315 6.34763 11.5863 9.1567 8.82605C14.9122 3.17141 23.7587 2.62093 28.8126 7.72137L35.2694 14.0651L30.3563 18.8921L33.3027 21.7906L34.1451 22.6182L36.1118 24.5468L39.0619 27.4452L46.6432 34.89C48.4689 36.8223 49.5933 39.1665 49.7306 41.7878L37.2366 29.3737C36.5352 28.6846 35.4108 28.6846 34.7094 29.3737C33.8671 29.7893 33.8671 30.8903 34.5684 31.4445L34.5701 31.4446ZM68.2685 27.9957L53.8071 42.2C53.8071 38.3391 52.2597 34.6167 49.4543 31.8569L41.45 23.9965L45.2425 20.2741C46.0849 19.4465 46.0849 18.2033 45.2425 17.3757C44.4001 16.5481 43.1347 16.5481 42.2924 17.3757L38.4999 21.1017L37.0972 19.7199L36.2548 18.8923L38.9229 16.2746L47.6285 7.72156C49.8736 5.51584 52.9647 4.27629 56.3342 4.27629C60.2639 4.27629 64.1974 5.93145 67.1439 8.82625C69.953 11.5861 71.6377 15.17 71.7787 18.7578C71.9197 22.203 70.6543 25.5134 68.2683 27.9962L68.2685 27.9957Z" fill="#F8D347"/>
</svg>
