<svg width="25" height="20" viewBox="0 0 25 20" fill="currentColor" xmlns="http://www.w3.org/2000/svg">
<path fill-rule="evenodd" clip-rule="evenodd" d="M22.5 0C23.8807 0 25 1.11929 25 2.5V17.5C25 18.8807 23.8807 20 22.5 20H2.5C1.11929 20 0 18.8807 0 17.5V2.5C0 1.11929 1.11929 0 2.5 0H22.5ZM13.75 3.75H2.5V16.25H13.75V3.75ZM22.5 13.75H16.25V16.25H22.5V13.75ZM8.125 11.25C9.1625 11.25 11.25 11.725 11.25 12.675V13.75H5V12.675C5 11.725 7.0875 11.25 8.125 11.25ZM22.5 8.75H16.25V11.25H22.5V8.75ZM8.125 6.25C9.16053 6.25 10 7.08947 10 8.125C10 9.16053 9.16053 10 8.125 10C7.08947 10 6.25 9.16053 6.25 8.125C6.25 7.08947 7.08947 6.25 8.125 6.25ZM22.5 3.75H16.25V6.25H22.5V3.75Z" fill="white"/>
</svg>
