<svg width="40" height="52" viewBox="0 0 40 52" fill="none" xmlns="http://www.w3.org/2000/svg">
<path d="M3.95308 29.5416L4.04543 29.6762C4.15786 29.845 4.27632 30.0097 4.39478 30.1906L17.79 49.4463C18.1815 50.0089 18.822 50.3424 19.5066 50.3424C20.1912 50.3424 20.8317 50.0089 21.2232 49.4463L34.5865 30.205C34.715 30.0241 34.8375 29.8493 34.9619 29.6906L35.0443 29.5681V29.5661C37.4635 25.8211 38.4494 21.3284 37.8229 16.9123C37.1965 12.4963 34.9981 8.45609 31.6331 5.5326C28.2682 2.60931 23.9595 1 19.5043 1C15.0472 1 10.7405 2.60931 7.37554 5.5326C4.00859 8.45589 1.81021 12.4962 1.18368 16.9123C0.557246 21.3284 1.54507 25.8206 3.96439 29.5661L3.95308 29.5416Z" fill="#9AC6E5" stroke="black" stroke-width="2"/>
</svg>
