<svg height="14" viewBox="0 0 24 13" fill="currentColor" xmlns="http://www.w3.org/2000/svg">
<path fill-rule="evenodd" clip-rule="evenodd" d="M8 5H5V2H3V5H0V7H3V10H5V7H8V5ZM18 6C19.66 6 20.99 4.66 20.99 3C20.99 1.34 19.66 0 18 0C17.68 0 17.37 0.0499999 17.09 0.14C17.66 0.95 17.99 1.93 17.99 3C17.99 4.07 17.65 5.04 17.09 5.86C17.37 5.95 17.68 6 18 6ZM13 6C14.66 6 15.99 4.66 15.99 3C15.99 1.34 14.66 0 13 0C11.34 0 10 1.34 10 3C10 4.66 11.34 6 13 6ZM19.62 8.16C20.45 8.89 21 9.82 21 11V13H24V11C24 9.46 21.63 8.51 19.62 8.16ZM13 8C11 8 7 9 7 11V13H19V11C19 9 15 8 13 8Z"/>
</svg>
