<svg height="18" viewBox="0 0 20 18" fill="none" xmlns="http://www.w3.org/2000/svg">
<path d="M11.4037 1C11.3913 1 11.3781 1.00081 11.3649 1.00161H5.40072C5.10872 1 4.87049 1.23044 4.86884 1.51486V6.22346H3.11765C1.95212 6.22346 1 7.15165 1 8.28692V13.2461C1 14.3814 1.95212 15.3096 3.11765 15.3096H4.86884V16.4859C4.87049 16.7712 5.10872 17.0008 5.40072 17H14.6C14.8912 16.9984 15.1261 16.7696 15.1278 16.4859V15.3096H16.8781C18.0436 15.3096 19 14.3814 19 13.2461V8.28692C19 7.15167 18.0438 6.22346 16.8781 6.22346H15.1278V4.6515C15.1269 4.64102 15.1261 4.63135 15.1244 4.62169C15.1228 4.60477 15.1211 4.58865 15.1178 4.57173C15.1162 4.55803 15.1129 4.54353 15.1096 4.53064C15.1054 4.51211 15.0988 4.49438 15.0922 4.47666C15.088 4.46538 15.0839 4.4541 15.0789 4.44282C15.0665 4.41623 15.0525 4.39125 15.0368 4.36708C15.0351 4.36547 15.0335 4.36305 15.0326 4.36144C15.0144 4.33565 14.9937 4.31148 14.9714 4.28973L11.7503 1.14894C11.7271 1.12719 11.7015 1.10705 11.675 1.09012C11.6692 1.0861 11.6634 1.08287 11.6576 1.07965C11.6378 1.06756 11.6163 1.05628 11.5956 1.04662C11.5873 1.04259 11.579 1.03936 11.5708 1.03614C11.517 1.01519 11.4608 1.00322 11.4037 1ZM5.92772 2.03213H10.8479V4.65147C10.847 4.93589 11.0828 5.16794 11.3748 5.16874H14.0682V6.22343H5.92778L5.92772 2.03213ZM11.9067 2.76131L13.3212 4.13748H11.9067V2.76131ZM3.1176 7.25478H16.8781C17.4753 7.25478 17.941 7.70437 17.941 8.2861V13.2453C17.941 13.827 17.4753 14.2774 16.8781 14.2774L15.1277 14.2782V12.0052H15.4942C15.6348 12.006 15.7696 11.952 15.8697 11.8553C15.969 11.7595 16.0252 11.6281 16.0261 11.492C16.0269 11.3542 15.9706 11.222 15.8714 11.1246C15.7713 11.0279 15.6356 10.9731 15.4942 10.9739H4.50062C4.36082 10.9747 4.22598 11.0295 4.12755 11.1262C4.02829 11.2237 3.97287 11.355 3.97369 11.492C3.97452 11.7748 4.21028 12.0044 4.50063 12.0052H4.86874V14.2782H3.11755C2.52031 14.2782 2.05873 13.8278 2.05873 13.2461V8.28691C2.05873 7.70518 2.52031 7.25559 3.11755 7.25559L3.1176 7.25478ZM5.92764 12.0044H14.0681V15.9717L5.92764 15.9725V12.0044ZM7.90052 12.6409V12.6417C7.61017 12.6425 7.37441 12.8722 7.37359 13.1558C7.37276 13.292 7.42818 13.4233 7.52745 13.5208C7.62588 13.6175 7.76073 13.6722 7.90051 13.6731H12.0945C12.2351 13.6722 12.37 13.6175 12.4684 13.5208C12.5677 13.4233 12.6231 13.2919 12.6223 13.1558C12.6214 12.8722 12.3857 12.6425 12.0945 12.6417L7.90052 12.6409ZM7.90052 14.3039V14.3047C7.76072 14.3047 7.62588 14.3603 7.52745 14.457C7.42819 14.5537 7.37277 14.6859 7.37359 14.822C7.37442 15.1056 7.61018 15.3344 7.90053 15.3361H12.0945C12.3857 15.3344 12.6215 15.1056 12.6223 14.822C12.6231 14.6858 12.5677 14.5537 12.4684 14.457C12.37 14.3603 12.2351 14.3047 12.0945 14.3047L7.90052 14.3039Z" fill="currentColor" stroke="currentColor" stroke-width="0.25"/>
</svg>
