<svg width="15" height="16" viewBox="0 0 15 16" fill="none" xmlns="http://www.w3.org/2000/svg">
<path fill-rule="evenodd" clip-rule="evenodd" d="M11.9531 2.375C11.9531 1.72813 11.4281 1.20312 10.7812 1.20312H4.21875C3.57187 1.20312 3.04688 1.72813 3.04688 2.375V13.625C3.04688 14.2719 3.57187 14.7969 4.21875 14.7969H10.7812C11.4281 14.7969 11.9531 14.2719 11.9531 13.625V2.375ZM11.4844 12.9218V13.6249C11.4844 14.0128 11.1691 14.3281 10.7812 14.3281H4.21875C3.83086 14.3281 3.51562 14.0128 3.51562 13.6249V12.9218H11.4844ZM6.79688 13.8593H8.20312C8.33262 13.8593 8.4375 13.7544 8.4375 13.6249C8.4375 13.4954 8.33262 13.3906 8.20312 13.3906H6.79688C6.66738 13.3906 6.5625 13.4954 6.5625 13.6249C6.5625 13.7544 6.66738 13.8593 6.79688 13.8593ZM11.4844 12.453H3.51562V2.37485C3.51562 1.98696 3.83086 1.67173 4.21875 1.67173H10.7812C11.1691 1.67173 11.4844 1.98696 11.4844 2.37485V12.453ZM10.3124 5.73125C10.3124 5.08438 9.78742 4.55938 9.14055 4.55938H5.8593C5.21242 4.55938 4.68742 5.08438 4.68742 5.73125V8.54375C4.68742 9.19063 5.21242 9.71563 5.8593 9.71563H9.14055C9.78742 9.71563 10.3124 9.19063 10.3124 8.54375V5.73125ZM9.12414 9.24695H9.14055C9.52843 9.24695 9.84367 8.93171 9.84367 8.54383V5.73133C9.84367 5.34344 9.52843 5.0282 9.14055 5.0282H5.8593C5.47141 5.0282 5.15617 5.34344 5.15617 5.73133V8.54383C5.15617 8.93171 5.47141 9.24695 5.8593 9.24695H5.8757C5.98938 8.45242 6.67375 7.8407 7.4999 7.8407C8.32606 7.8407 9.00984 8.45242 9.12414 9.24695ZM8.64835 9.24695C8.53937 8.71258 8.06652 8.30945 7.49992 8.30945C6.93333 8.30945 6.46047 8.71258 6.35149 9.24695H8.64835ZM7.49992 5.73125C6.98254 5.73125 6.56242 6.15137 6.56242 6.66875C6.56242 7.18613 6.98254 7.60625 7.49992 7.60625C8.0173 7.60625 8.43742 7.18613 8.43742 6.66875C8.43742 6.15137 8.0173 5.73125 7.49992 5.73125ZM7.49992 6.2C7.75891 6.2 7.96867 6.40976 7.96867 6.66875C7.96867 6.92774 7.75891 7.1375 7.49992 7.1375C7.24093 7.1375 7.03117 6.92774 7.03117 6.66875C7.03117 6.40976 7.24093 6.2 7.49992 6.2Z" fill="#05176C"/>
<path d="M8.20312 2.525H6.79688C6.66738 2.525 6.5625 2.42012 6.5625 2.29063C6.5625 2.16113 6.66738 2.05625 6.79688 2.05625H8.20312C8.33262 2.05625 8.4375 2.16113 8.4375 2.29063C8.4375 2.42012 8.33262 2.525 8.20312 2.525Z" fill="#05176C"/>
<path fill-rule="evenodd" clip-rule="evenodd" d="M11.9531 2.375C11.9531 1.72813 11.4281 1.20312 10.7812 1.20312H4.21875C3.57187 1.20312 3.04688 1.72813 3.04688 2.375V13.625C3.04688 14.2719 3.57187 14.7969 4.21875 14.7969H10.7812C11.4281 14.7969 11.9531 14.2719 11.9531 13.625V2.375ZM11.4844 12.9218V13.6249C11.4844 14.0128 11.1691 14.3281 10.7812 14.3281H4.21875C3.83086 14.3281 3.51562 14.0128 3.51562 13.6249V12.9218H11.4844ZM6.79688 13.8593H8.20312C8.33262 13.8593 8.4375 13.7544 8.4375 13.6249C8.4375 13.4954 8.33262 13.3906 8.20312 13.3906H6.79688C6.66738 13.3906 6.5625 13.4954 6.5625 13.6249C6.5625 13.7544 6.66738 13.8593 6.79688 13.8593ZM11.4844 12.453H3.51562V2.37485C3.51562 1.98696 3.83086 1.67173 4.21875 1.67173H10.7812C11.1691 1.67173 11.4844 1.98696 11.4844 2.37485V12.453ZM10.3124 5.73125C10.3124 5.08438 9.78742 4.55938 9.14055 4.55938H5.8593C5.21242 4.55938 4.68742 5.08438 4.68742 5.73125V8.54375C4.68742 9.19063 5.21242 9.71563 5.8593 9.71563H9.14055C9.78742 9.71563 10.3124 9.19063 10.3124 8.54375V5.73125ZM9.12414 9.24695H9.14055C9.52843 9.24695 9.84367 8.93171 9.84367 8.54383V5.73133C9.84367 5.34344 9.52843 5.0282 9.14055 5.0282H5.8593C5.47141 5.0282 5.15617 5.34344 5.15617 5.73133V8.54383C5.15617 8.93171 5.47141 9.24695 5.8593 9.24695H5.8757C5.98938 8.45242 6.67375 7.8407 7.4999 7.8407C8.32606 7.8407 9.00984 8.45242 9.12414 9.24695ZM8.64835 9.24695C8.53937 8.71258 8.06652 8.30945 7.49992 8.30945C6.93333 8.30945 6.46047 8.71258 6.35149 9.24695H8.64835ZM7.49992 5.73125C6.98254 5.73125 6.56242 6.15137 6.56242 6.66875C6.56242 7.18613 6.98254 7.60625 7.49992 7.60625C8.0173 7.60625 8.43742 7.18613 8.43742 6.66875C8.43742 6.15137 8.0173 5.73125 7.49992 5.73125ZM7.49992 6.2C7.75891 6.2 7.96867 6.40976 7.96867 6.66875C7.96867 6.92774 7.75891 7.1375 7.49992 7.1375C7.24093 7.1375 7.03117 6.92774 7.03117 6.66875C7.03117 6.40976 7.24093 6.2 7.49992 6.2Z" stroke="#05176C" stroke-width="0.25"/>
<path d="M8.20312 2.525H6.79688C6.66738 2.525 6.5625 2.42012 6.5625 2.29063C6.5625 2.16113 6.66738 2.05625 6.79688 2.05625H8.20312C8.33262 2.05625 8.4375 2.16113 8.4375 2.29063C8.4375 2.42012 8.33262 2.525 8.20312 2.525Z" stroke="#05176C" stroke-width="0.25"/>
</svg>
