<svg height="12" viewBox="0 0 14 12" fill="none" xmlns="http://www.w3.org/2000/svg">
<path fill-rule="evenodd" clip-rule="evenodd" d="M11.25 1.90909H2.25C1.69772 1.90909 1.25 2.31611 1.25 2.81818V9.18182C1.25 9.6839 1.69772 10.0909 2.25 10.0909H11.25C11.8023 10.0909 12.25 9.6839 12.25 9.18182V2.81818C12.25 2.3161 11.8023 1.90909 11.25 1.90909ZM2.25 1C1.14543 1 0.25 1.81403 0.25 2.81818V9.18182C0.25 10.186 1.14543 11 2.25 11H11.25C12.3546 11 13.25 10.186 13.25 9.18182V2.81818C13.25 1.81403 12.3546 1 11.25 1H2.25Z" fill="#05176C"/>
<path fill-rule="evenodd" clip-rule="evenodd" d="M11.25 2.15909H2.25C1.81283 2.15909 1.5 2.47607 1.5 2.81818V9.18182C1.5 9.52394 1.81283 9.84091 2.25 9.84091H11.25C11.6872 9.84091 12 9.52394 12 9.18182V2.81818C12 2.47606 11.6872 2.15909 11.25 2.15909ZM0 2.81818C0 1.65407 1.03032 0.75 2.25 0.75H11.25C12.4697 0.75 13.5 1.65407 13.5 2.81818V9.18182C13.5 10.3459 12.4697 11.25 11.25 11.25H2.25C1.03032 11.25 0 10.3459 0 9.18182V2.81818ZM2.25 1.90909H11.25C11.8023 1.90909 12.25 2.3161 12.25 2.81818V9.18182C12.25 9.6839 11.8023 10.0909 11.25 10.0909H2.25C1.69772 10.0909 1.25 9.6839 1.25 9.18182V2.81818C1.25 2.31611 1.69772 1.90909 2.25 1.90909ZM0.25 2.81818C0.25 1.81403 1.14543 1 2.25 1H11.25C12.3546 1 13.25 1.81403 13.25 2.81818V9.18182C13.25 10.186 12.3546 11 11.25 11H2.25C1.14543 11 0.25 10.186 0.25 9.18182V2.81818Z" fill="#05176C"/>
<path d="M6.78498 3C5.54576 3 4.53744 4.06193 4.53744 5.36989C4.53744 6.46321 5.24556 7.37769 6.19928 7.65066C4.6263 7.81415 3.19258 8.66879 2.25 10H5.27837C5.4778 9.99635 5.68212 9.99562 5.89064 10H7.745C7.88144 9.99781 8.01649 9.99854 8.14944 10H11.25C10.3187 8.68262 8.90949 7.83096 7.35535 7.6529C8.31608 7.38432 9.03051 6.46762 9.03051 5.36989C9.03121 4.062 8.02415 3 6.78498 3Z" fill="#05176C"/>
</svg>
